<?xml version="1.0" encoding="utf-8"?>
<!-- Generator: Adobe Illustrator 19.2.1, SVG Export Plug-In . SVG Version: 6.00 Build 0)  -->
<svg version="1.1" xmlns="http://www.w3.org/2000/svg" xmlns:xlink="http://www.w3.org/1999/xlink" x="0px" y="0px"
	 viewBox="0 0 960 560" style="enable-background:new 0 0 960 560;" xml:space="preserve">
<style type="text/css">
	.st0{display:none;}
	.st1{display:inline;}
	.st2{fill:#FEFEFE;}
	.st3{fill:#201F1F;}
	.st4{fill:#9BD9EF;}
	.st5{fill:#7CB9E5;}
	.st6{fill:#9CD9EE;}
	.st7{fill:#9CD9EF;}
	.st8{fill:#040304;}
	.st9{fill:#D5D5D5;}
	.st10{fill:#F3C9B0;}
	.st11{fill:#C39A86;}
	.st12{fill:#302F2F;}
	.st13{fill:#323030;}
	.st14{fill:#7F6D5F;}
	.st15{fill:#877469;}
	.st16{fill:#FCFCFC;}
	.st17{fill:#9AD6EC;}
	.st18{fill:#9AD5EA;}
	.st19{fill:#98D4E9;}
	.st20{fill:#97D3E6;}
	.st21{fill:#96D1E4;}
	.st22{fill:#99D4E9;}
	.st23{fill:#AC5D51;}
	.st24{fill:#AC5C51;}
	.st25{fill:#AB5C51;}
	.st26{fill:#FCFAFA;}
	.st27{fill:#FCFBFB;}
	.st28{fill:none;stroke:#231F20;stroke-linecap:round;}
</style>
<g id="Layer_1" class="st0">
	<g class="st1">
		<g>
			<path class="st2" d="M480.8,549c-100,0-200.1,0-300.1,0.1c-2.8,0-3.5-0.6-3.5-3.5c0.1-176.5,0.1-353.1,0-529.6
				c0-2.8,0.6-3.5,3.5-3.5c200.1,0.1,400.1,0.1,600.2,0c2.8,0,3.5,0.6,3.5,3.5c-0.1,176.5-0.1,353.1,0,529.6c0,2.8-0.6,3.5-3.5,3.5
				C680.8,549,580.8,549,480.8,549z"/>
			<path class="st3" d="M501.3,45.1c12.1,1.2,24.1,2.9,35.8,5.8c1.6,0.4,2.9,0.3,4.2-0.7c9.5-7,19.9-12.6,30.4-18
				c11-5.6,22.3-8.8,34.6-9.1c3.1-0.1,4.7,1,5.7,4.1c6.8,21.1,9.2,42.4,3.7,64.1c-0.8,3.2,1.4,4.6,2.8,6.4c3.5,4.3,6.9,8.6,9.9,13.3
				c11.5,17.9,17.1,37.6,17.6,58.6c0.6,22.8-0.4,45.5-5.9,67.8c1.3,1,2.7,0.5,4,0.5c26.3-0.9,52.6-0.2,78.8,2.4
				c12.8,1.3,25.6,3.1,38.2,5.6c0.8,0.2,2.8-0.3,2.3,1.6c-0.4,1.7-1.9,0.6-2.9,0.5c-34.2-6.4-68.7-8.5-103.4-8.1
				c-5.1,0.1-10.1,0.4-15.2,0.4c-1.9,0-2.8,0.6-3.5,2.4c-2.9,8.7-3,8.6,6.2,8.9c28.7,1.1,57.2,3.9,85.3,10
				c10.2,2.2,20.5,4.6,30.6,7.7c0.7,0.2,2.4,0,1.7,1.7c-0.5,1.4-1.5,0.6-2.2,0.4c-12.4-3.3-25.1-5.5-37.6-8.6
				c-16.5-4.1-33.2-5.5-50-7.2c-11.4-1.2-22.9-1.5-34.4-2.3c-2.3-0.2-3.5,0.4-4.6,2.7c-5.5,12.1-13,22.5-23.4,31
				c-3.9,3.2-8,6-12.2,8.6c-15.8,9.7-33.4,13.9-51.4,17.6c-6.7,1.4-13.5,2-20.2,3.6c-1.7,1.4-3.8,1.3-5.8,1.3
				c-26.6,0.1-53.2,0.1-79.8,0c-2.5,0-5.1,0.1-7.4-1.2c-0.8-1.2-2.1-0.6-3.1-0.8c-17.7-3.1-35.5-6.3-52.1-13.3
				c-8.6-3.6-17.2-7.8-24.7-13.5c-12-9.2-22.2-19.9-29.1-33.5c-0.9-1.8-2-2.5-4.1-2.4c-26.4,1.2-52.8,3-78.7,8.3
				c-13.5,2.7-27.1,5.4-40.3,9.3c-0.6,0.2-1.2,0.3-1.8,0.5c-0.8,0.2-1.8,0.8-2.2-0.6c-0.4-1.5,0.9-1.3,1.6-1.5
				c6.2-1.6,12.5-3.1,18.7-4.7c32.7-8.7,66.2-11.6,99.8-13.2c4.6-0.2,4.2-0.2,3-4.4c-1.7-5.5-4.8-7.1-10.5-7.2
				c-36.7-0.7-73.2,1.2-109.4,7.8c-1.2,0.2-3.6,2-4-0.6c-0.2-1.4,2.3-1.3,3.7-1.5c37.2-6.9,74.7-8.9,112.5-7.6
				c3.9,0.1,3.9-0.8,3-4.1c-7.9-29-10.4-58.4-4.1-88c2.5-11.8,7.3-22.8,13.9-32.9c2.8-4.3,5.5-8.8,9.2-12.4c1.3-1.3,0.9-2.4,0.4-3.7
				c-7.2-23.4-5.3-46.6,2.3-69.6c0.9-2.8,2.3-4,5.4-4.1c11.5-0.1,22.3,3,32.5,7.7c3.5,1.7,7,3.7,10.6,5.4c8.4,4,15.8,9.7,23.5,14.8
				c1.9,1.3,3.6,1.7,5.9,1.1c14.1-3.7,28.5-5.3,42.9-7.3c12.6-1.7,25.1-0.9,37.7-1.1C497.4,45.1,499.6,43.8,501.3,45.1z"/>
			<path class="st3" d="M411.8,425.4c0.3-13.9,0.4-27.9-0.1-41.8c-0.7-10.6-0.8-21.1,0.7-31.7c0.1-0.6,0.5-1.2,0.8-1.7
				c2.4-8.3,5.4-16.4,10.2-23.7c0.3-0.5,0.8-0.9,1.2-1.4c9.4-3.4,19.2-4.3,29-4.5c11.7-0.2,23.4-1.8,35.1-0.5
				c5.8,0.6,11.6,0.2,17.4,0.9c10.7,1.1,20,5.2,28.1,12c5.7,4.8,9.7,10.9,11.6,18.2c0.3,1,0.3,2,1,2.8c1.2,5.1,1.1,10.2,1.2,15.4
				c0.1,17,0,34.1,0,51.1c0,1.4,0.1,2.8,0.2,4.1c1.3,1.2,1.1,2.8,1.1,4.3c0,3.4-0.1,6.8,0,10.2c0.4,10.6,4.4,19,14.3,24
				c5.7,2.9,7.3,7.1,4.5,11.5c-1.6,1.3-3.5,1.9-5.6,2c-8.2,0.3-16.1-0.7-23.6-3.9c-12.9-5.8-18.6-16.3-19-29.9
				c-0.2-7.2-0.1-14.3,0-21.5c-0.2-12.1,0-24.3-0.1-36.4c0-6.5-0.9-12.8-3-19c-0.5-1.5-1-3.1-2.9-5.1c-0.3,20.5,0,40.2-0.2,59.9
				c0.1,14,0,28,0,42c0,3.4,0.5,6.8,1.3,10.1c1.2,5.2,4,9.4,8.3,12.7c3.8,6,2.6,10.1-3.8,12.8c-1,0.3-2,0.4-3.1,0.4
				c-9.4-0.6-16.8-5.6-24-10.9c-6.6-6.4-9.9-14.1-9.9-23.3c0-34.9,0.2-69.9,0.1-104.8c0-1.9,0.1-3.8-0.2-5.7c-1.5-4-2.5-4.2-5.1-1.2
				c-0.4,1.8-0.2,3.5-0.2,5.3c-0.1,35.3,0.2,70.5,0.1,105.8c0,9.3-3.3,17.3-9.8,23.9c-6.3,4.6-12.4,9.4-20.5,10.5
				c-2.4,0.3-4.7,0.4-7.1,0.3c-0.4,0-0.8-0.1-1.3-0.3c-5.3-3.4-5.8-6.8-2-12.7c7.8-4.8,9.7-12.2,9.6-20.8c-0.1-14.6-0.1-29.2,0-43.9
				c-0.2-20,0-40-0.1-60.6c-2.1,1.4-2.5,3-3,4.5c-1.9,5.8-2.9,11.8-3,17.9c0,12.9,0.1,25.8-0.1,38.7c-0.3,9,0.6,18.1-0.6,27.1
				c-1.6,11.6-8.1,19.4-18.4,24.5c-8.5,3.5-17.4,4.5-26.6,3.7c-2.5-0.7-4.6-1.8-4.8-4.6c-0.3-2.9,1.1-5.1,3.3-6.8
				c1-0.8,2.2-1.2,3.4-1.7c9.6-4.2,14.2-11.6,14.2-22.1c0-3.8,0-7.6,0-11.4C410.7,428.2,410.5,426.6,411.8,425.4z"/>
			<path class="st4" d="M567.9,473.7c1.5-3.6,0.2-7.3-3.5-9c-12-5.4-16.1-15.4-16.4-27.6c-0.1-4.1,0.1-8.3,0.2-12.4
				c19.5,3.1,38.6,8.3,56.7,16.2c12.1,5.3,24.2,11.7,31.8,23.3c5,7.6,6.9,15.7,2.6,24.7c-3,6.2-7.6,10.7-12.8,15.1
				c-7,6-15.4,9.3-23.5,13.3c-14.2,7.2-29.7,10-44.9,13.5c-3.3,0.7-6.3,2.3-9.8,2.2c-1.2-1.4-1-3.1-1-4.7c0-8.6-0.3-17.1,0.1-25.7
				c0.6-12.1,5.9-21.4,17.4-26.4C566,475.6,567,474.8,567.9,473.7z"/>
			<path class="st4" d="M411.8,425.4c0.4,6.4,0.7,12.9-0.1,19.3c-1.1,9.1-6.1,15.8-14.8,19.4c-1.9,0.8-3.9,1.3-5.1,3.5
				c-2.3,4.5-2.1,5.7,2.4,7.9c10.4,3.5,18.4,14.4,18.5,25.6c0.1,8.8,0,17.7,0,26.5c0,1.6,0.3,3.3-1,4.7c-14.8-3.9-30-6.1-44.2-12.1
				c-8.6-3.7-17.6-7-25.1-12.7c-6-4.6-12-9.3-16-16.2c-6.2-10.6-3.1-21.9,3.6-30.1c6.7-8.1,15.6-12.8,24.6-17.8
				c12.2-6.7,25.5-9.7,38.6-13.7C399.4,427.8,405.6,426.7,411.8,425.4z"/>
			<path class="st3" d="M410.2,383.6c-17.3,4-34.5,4.6-50.7-3.4c-12.4-6.1-21.1-16.3-27.3-28.6c-4.8-9.5-9.9-18.7-17.6-26.1
				c-3.2-3.1-7.2-5-11.2-7.1c-3-1.6-5.8-3.4-7.7-6.3c-2.2-3.3-1.8-5.2,1.9-6.8c4.9-2,10-1.6,14.9-0.4c13,3.2,21.9,11.6,28.9,22.6
				c5.2,8.3,10.5,16.4,18.8,22.4c12.3,8.8,25.4,9.2,39.2,5.9c4.3-1,8.7-2.1,12.4-4.9c1.3,1.8,0.5,3.5-0.3,5.1
				c-1.1,1.5-4.1,0.6-4.3,3.1c-0.2,2.2,2.7,1.9,3.5,3.5c0.1,0.2,0.2,0.4,0.3,0.7c0.7,5.8,0.2,11.7,0.3,17.5
				C411.3,381.9,410.9,382.8,410.2,383.6z"/>
			<path class="st5" d="M567.9,473.7c-0.6,2-2.3,2.9-4,3.8c-10.4,5.5-15.4,14.4-15.6,26c-0.2,9.8-0.1,19.7-0.1,29.5
				c-8.3,1.4-16.6,2.8-25,3.2c-1.9,0.9-2.8-0.1-3.2-1.8c-0.4-1.6-0.2-3.3-0.3-4.9c-0.2-10.7,0.5-21.4-0.4-32.1
				c5.8-2.7,6.6-5.2,3.8-11.2c2.8-5.5,6.7-9.9,12.4-12.6c1.2-0.6,2.4-1.3,3.7-1.9c6.9,2.5,13.9,3.9,21.3,3.9
				C563.2,475.6,565.7,475.3,567.9,473.7z"/>
			<path class="st5" d="M411.7,532.3c0-9.1-0.2-18.2,0-27.3c0.4-13.2-5.2-22.6-16.8-28.6c-0.3-0.2-0.5-0.6-0.7-0.9
				c9.1,0.4,18-0.5,26.6-3.8c7.6,2.4,13,7.2,16.2,14.5c-2.8,6-2.5,8.2,2,11.2c1.2,1.3,1.2,3,1.2,4.6c0,9.8,0,19.6,0,29.3
				c0,1.6,0.1,3.3-1.3,4.6C429.8,535.4,420.7,534.3,411.7,532.3z"/>
			<path class="st4" d="M483.2,352.5c1,1.2,0.5,2.7,0.5,4c0,34-0.1,68-0.2,102c0,7.4,0.3,14.6,4.1,21.3c1.7,2.9,4.1,5.1,6.2,7.6
				c0.7,1.5-0.2,2.6-0.9,3.8c-4.9,7.8-6.9,16.4-7.1,25.5c-0.2,5.7,0,11.3,0,17c0,1.6,0.2,3.3-1.1,4.7c-6.9-0.3-13.8,0.9-20.6-0.6
				c2.3-1.9,5.1-1,7.6-1.1c2.3-0.1,3.8-0.8,3.5-3.3c-1.1-8-0.1-16.1-1.2-24.1c-0.9-6.7-3.2-12.9-6.6-18.7c-0.6-1-1.3-1.9-1-3.1
				c7.6-7.5,10.2-16.6,10.1-27.1c-0.2-34.7-0.1-69.4-0.1-104.1c0-1.7-0.4-3.5,0.6-5.2c1.8,1.7,1.3,4,1.3,6.1c0,18.1,0,36.1,0,54.2
				c0,1.4-0.1,2.8,0.1,4.2c0.2,1,0.4,2.1,1.7,2c1.4-0.1,1.5-1.2,1.6-2.2c0.2-1.4,0.1-2.8,0.1-4.2c0-17.6,0-35.1,0-52.7
				C481.9,356.5,481.3,354.2,483.2,352.5z"/>
			<path class="st5" d="M484.6,538.3c0.4-10.9-1-21.9,1.4-32.8c1.3-5.9,3.4-11.2,6.9-16.1c0.4-0.6,0.6-1.4,0.9-2
				c7,4.7,13.9,9.4,22.7,10.2c0.7,0.9,0.5,1.9,0.2,2.9c-3,9.9-3,20.1-2.9,30.4c0,2.1,0.4,4.3-1.1,6.2
				C503.3,538,494,538.7,484.6,538.3z"/>
			<path class="st5" d="M466.3,487.4c6.1,8.1,9,17.3,9.2,27.4c0.1,6.4,0.1,12.8,0.8,19.2c0.3,2.7-0.6,3.9-3.5,3.7
				c-2.9-0.2-5.8,0-8.7,0c-5.5,0-11.1-0.1-16.6-1c-1.5-1.6-1.1-3.5-1.2-5.4c-0.3-7.3,0.5-14.6-0.8-21.9c-0.8-4.6-1.3-9.1-5.7-11.9
				C450.1,498.1,458.4,493.3,466.3,487.4z"/>
			<path d="M546.8,354c-2-2.4-2.5-5.6-4.1-8.4c-4.5-7.9-10.6-13.6-18.6-18c-8.3-4.6-17.1-5.7-26-6.1c-6.3-0.3-12.6-1.3-18.8-0.8
				c-15.2,1.1-30.4,0.3-45.5,3c-2.3,0.4-4.6,1.2-6.9,1.9c-0.9,0.3-1.7,0.5-2.3-0.4c2.5-3.3,5.5-6.1,9-8.4c2.2-1.3,4.4,0.1,6.6,0.1
				c27.1-0.1,54.3-0.1,81.4-0.1c1.6,0,3.2,0,4.9-0.1C538.8,326.2,545.1,338.8,546.8,354z"/>
			<path class="st4" d="M512.7,537c0.1-10.4-0.7-20.8,1.4-31.1c0.6-2.9,1.8-5.5,2.4-8.3c1-0.1,1.9-0.1,2.9-0.2
				c2.3,0.4,1.6,2.2,1.6,3.6c0,10.6,0,21.2,0,31.8c0,1.7-0.3,3.5,2.3,3.4C519.8,537.5,516.2,536.6,512.7,537z"/>
			<path class="st6" d="M439.8,497.5c7.5,0.9,5.8,7.3,6.7,11.7c1.9,9.1,0.5,18.3,0.9,27.5c-2.9,0.5-5.6-0.7-8.4-0.8
				c0-12.8,0-25.7,0.1-38.5C439.3,497.5,439.6,497.5,439.8,497.5z"/>
			<path class="st7" d="M300.5,317.9c1.7,6.4,2.9,11.7,4.4,17c0.5,1.7,0,3.2-0.3,4.8c-0.4,2-1.9,2.9-3.8,3c-1.9,0.1-3.6-0.5-4.3-2.4
				c-0.5-1.3-1-2.7-0.8-4C296.5,330.3,298.4,324.7,300.5,317.9z"/>
			<path class="st8" d="M410.2,383.6c0-7.1,0-14.2,0-21.3c-1.5-2.2-0.8-4.1,0.7-5.9c0.3-1.8,0.6-3.6,0.8-5.4
				c0.4-0.6,0.9-0.8,1.5-0.8c-1,10.1-0.7,20.3-0.8,30.5c0,1-0.5,1.9-0.7,2.9C411.2,383.6,410.7,383.6,410.2,383.6z"/>
			<path class="st9" d="M501.3,45.1c-1.9-0.2-4.1,1-5.5-1.3C497.7,43.8,499.9,42.6,501.3,45.1z"/>
			<path class="st10" d="M605.1,217.5c0.4,20.1-1.7,39.5-14,56.5c-2.5,3.4-5.3,6.3-8.4,9.1c-12.9,11.4-28.7,15-45,17.3
				c-0.8,0.5-1.7,0.7-2.5,1.2c-34.3,3.1-68.6,3.3-103,0c-0.9-0.8-2.3-0.4-3.2-1.3c-12.4-1.6-24.7-4-36.2-9.2
				c-13-5.9-24.2-14.5-31.3-27.2c-7.9-14.1-10.5-29.6-9.8-45.6c0.7-6.7,2.2-13.1,5.2-19.2c4.6-9.5,11.1-17.3,19.1-24.2
				c8.8-7.6,19.4-9.5,30.3-10c14-0.7,28,0.9,41.9,2c11.3,0.9,22.6,2.3,34,1.7c12.6-0.7,25.2-1.5,37.7-2.6c15-1.3,30-2.6,44.9,0.9
				c11.1,2.6,19.2,9.5,26.2,18.2c5.5,6.9,9.9,14.3,12.3,22.8C604.3,211,604.6,214.3,605.1,217.5z"/>
			<path class="st11" d="M605.1,217.5c-1.6-6.7-3.3-13.4-6.8-19.5c-4.8-8.5-10.4-16.2-18.1-22.4c-9.2-7.4-19.8-9.4-31-9.7
				c-16.5-0.5-32.9,1.7-49.4,2.9c-14.8,1.1-29.7,1.5-44.5-0.4c-7-0.9-14-1-21.1-1.7c-9-0.9-18.1-1.1-27.2-0.8
				c-8.1,0.3-16.3,1.2-23.4,5.1c-7.1,4-13,9.6-18.1,16.2c-6.8,9-11.8,18.7-13.2,30c0,0.3-0.4,0.6-0.6,1c-0.5-6.8,1.2-13.3,3.9-19.4
				c6.3-14.1,14.9-26.6,29.5-33.4c8.3-3.9,17.4-4.9,26.5-5c3-1,6.1-1,9.1,0c37.4,2.8,74.8,3.5,112.3,0c4.8-1,9.6-1,14.4,0
				c5.4,0.1,10.7,1,16,2.1c14,3.1,23.1,12.4,30.8,23.7c5.1,7.5,8.6,15.6,10.3,24.5C605.2,212.9,605.3,215.2,605.1,217.5z"/>
			<path class="st12" d="M547.5,160.4c-4.8,0-9.6,0-14.4,0c0.2-0.8,0.6-1.4,1.5-1.4c3.8,0,7.7,0,11.5,0
				C547,159.1,547.4,159.6,547.5,160.4z"/>
			<path class="st13" d="M420.8,160.4c-3,0-6.1,0-9.1,0C413.8,158.4,418.7,158.4,420.8,160.4z"/>
			<path class="st14" d="M429.1,300.3c1.3-0.1,2.7-0.6,3.2,1.3C431,301.8,429.6,302,429.1,300.3z"/>
			<path class="st15" d="M535.3,301.5c0.2-1.6,1.4-1.4,2.5-1.2C537.5,301.9,536.4,301.8,535.3,301.5z"/>
			<path class="st4" d="M437,486.2c-4.2-6.2-9.6-11-16.2-14.5c12.7-6.4,18.3-16.9,18.2-30.9c-0.1-6.4,0.1-12.9,0.1-19.3
				c2.6-1.3,5.3-2.2,8.1-0.7c0,16.1,0.2,32.2,0,48.3C447.2,476.6,444,482.7,437,486.2z"/>
			<path class="st4" d="M539.2,471.7c-0.1,0.3-0.2,0.9-0.4,1c-6.8,2.6-11.1,8.3-15.7,13.4c-8.1-4.3-10-12.1-10.2-20.1
				c-0.5-15.1-0.1-30.2-0.1-45.3c2.8-1.4,5.6-1.9,8.1,0.7c0.1,6.5,0.2,13.1,0.1,19.6C520.9,454.9,526.5,465.4,539.2,471.7z"/>
			<path class="st2" d="M447.3,420.8c-2.7,0.1-5.4,1.1-8.1,0.7c0.1-16-0.9-32.1,0.6-48.1c0.4-3.8,1.5-7.4,2.8-10.9
				c0.8-2.2,2-4.2,4.7-5.7C447.3,378.5,447.3,399.7,447.3,420.8z"/>
			<path class="st2" d="M520.8,421.4c-2.6-1-5.4-0.5-8.1-0.7c0-20.8,0-41.7,0-62.8c2.9,1.1,3.7,3.7,4.6,6c2.1,5.4,3.4,11.1,3.5,17
				C521,394.4,520.9,407.9,520.8,421.4z"/>
			<path class="st16" d="M483.2,352.5c-0.1,21.1-0.1,42.2-0.1,63.3c0,2,0.1,3.6-2.8,3.7c-3.2,0.1-3.3-1.5-3.3-4
				c0-21.5,0-42.9,0-64.4c0.7-2,2.3-2,3.9-1.7C482.6,349.7,483.3,350.8,483.2,352.5z"/>
			<path class="st17" d="M375.3,359.8c2.5,0.2,4.9,0.8,5.1,3.9c0.1,2.6-1.8,3.3-4.1,3.3c-2.7,0-4.7-1.2-4.8-4.1
				C371.3,360.2,373.4,360,375.3,359.8z"/>
			<path class="st17" d="M393.2,360c2.4,0.3,4.7,0.8,4.6,3.6c-0.1,2.9-2.3,3.6-4.8,3.5c-2.3-0.1-4.3-0.9-4.2-3.7
				C388.9,360.6,391.3,360.4,393.2,360z"/>
			<path class="st18" d="M348.8,350.3c-2.4-0.1-5.1-3-5-5.4c0.1-1.6,0.9-2.6,2.6-2.6c2.3,0,5.3,2.8,5.2,5.2
				C351.6,349.2,350.6,350.3,348.8,350.3z"/>
			<path class="st19" d="M359.2,354.6c2.6,0.1,5.5,2.5,5.3,4.5c-0.2,1.8-1.5,2.6-3.2,2.5c-2.8-0.2-5-1.5-5.4-4.4
				C355.6,355.2,357.3,354.5,359.2,354.6z"/>
			<path class="st19" d="M335.7,328.9c2.7-0.1,5.3,2.7,5.2,5c0,1.5-0.6,2.8-2.4,2.7c-2.8-0.2-4.1-2.1-4.5-4.6
				C333.8,330.4,334.4,329.1,335.7,328.9z"/>
			<path class="st20" d="M331.3,321.7c-0.2,1.9-1.2,2.5-2.7,2.2c-2.2-0.4-3.7-1.8-3.8-4c-0.1-1.4,1-2.3,2.6-2
				C329.6,318.3,330.8,319.8,331.3,321.7z"/>
			<path class="st21" d="M317.9,310.6c1.9,0.2,3.4,1,3.5,3.2c0.1,1.6-0.9,2.3-2.3,2.2c-2.2-0.1-3.4-1.5-3.5-3.6
				C315.4,310.9,316.7,310.7,317.9,310.6z"/>
			<path class="st22" d="M410.9,356.4c-0.2,2-0.5,3.9-0.7,5.9c-2.3,0.1-4.8-0.1-4.6-2.9C405.8,356.4,408.2,355.8,410.9,356.4z"/>
			<path class="st2" d="M436,223.7c0.4,11.7-2.1,21.9-8.5,30.8c-3.5,4.9-8,9-14.4,10.2c-5,0.9-9.3-0.2-13.6-3.3
				c-11.8-8.5-14.8-20.7-15.8-34c-0.8-10.4,1.3-20.3,6.2-29.6c2.5-4.6,6.4-7.9,10.7-11c3.8-2.7,7.5-3.8,11.9-2.9
				c7.8,1.6,13.3,6.6,17,13.1C434.3,205.4,436.8,214.7,436,223.7z"/>
			<path class="st2" d="M577.9,224.8c-0.1,10-1.9,19.7-7.6,28c-3.6,5.2-7.9,10-14.7,11.7c-7.6,2-13.1-1.6-18.4-6.2
				c-6.2-5.5-8.9-12.9-10.7-20.5c-2.1-9.4-2-18.9,0.4-28.4c2.6-10.3,7.7-18.8,17.2-24.2c3.9-2.3,11.8-2.5,16,1
				c1.5,1.3,3.4,2.1,4.9,3.4c7.4,6.7,10.4,15.5,12,24.9C577.7,218,578.2,221.4,577.9,224.8z"/>
			<path class="st23" d="M478.7,289.7c-5.6,0-12.7-5.2-14.9-10.5c-0.8-2,0-3.5,1.4-4.2c1.4-0.8,2.1,1.1,2.5,2.1
				c4.3,10.3,18.1,10.3,22.4,0.1c0.4-1,1.1-2.8,2.4-2.2c1.4,0.6,2.1,2.1,1.4,4.1C491.8,284.5,484.6,289.7,478.7,289.7z"/>
			<path class="st24" d="M472.4,260.3c0-3.9,2.9-6.9,6.4-7c3.7-0.1,6.6,3.2,6.6,7.2c-0.1,3.8-2.9,6.9-6.4,6.9
				C475.3,267.5,472.3,264.3,472.4,260.3z"/>
			<path class="st25" d="M429.9,224.8c-0.1,9.6-2.7,18-10.1,24.7c-3.5,3.1-11.4,3.3-14.7,0.2c-10.6-9.9-11.8-22.1-8.9-35.4
				c1.6-7.4,5.9-12.7,12.6-15.9c2.4-1.2,4.8-1,7.4,0.2c10.1,4.9,12.7,14,13.6,24C430,223.3,429.9,224.1,429.9,224.8z"/>
			<path class="st25" d="M566.5,223.3c-0.1,11.2-2.8,19.8-10.4,26.4c-3.3,2.9-11.3,3-14.5,0.1c-10-9.1-11.7-20.6-9.5-33.2
				c1.4-7.9,5-14.4,12.8-18c2.7-1.3,5.1-1.4,7.7-0.1C563.7,203.9,565.7,214,566.5,223.3z"/>
			<path class="st26" d="M404.9,207.3c3.1,0,5.2,2.4,5.1,5.8c-0.1,2.8-2.4,5-5.1,5c-2.8,0-5.1-2.5-5-5.5
				C399.9,209.3,401.9,207.3,404.9,207.3z"/>
			<path class="st27" d="M547.8,213c-0.2,2.8-1.6,4.5-4.5,4.5c-2.9-0.1-4.3-1.9-4.3-4.7c0-3,1.9-5.2,4.5-5
				C546.5,208,547.9,209.9,547.8,213z"/>
		</g>
	</g>
</g>
<g id="Layer_2">
	<path class="st28" d="M437.2,313.3c-11.3,6.8-20,17.9-23.8,30.6c-0.7,2.2-1.3,4.6-2.8,6.3c-1.9,2-4.7,2.7-7.4,3.2
		c-10.1,1.9-20.5,3.1-30.6,1.2s-19.9-7.4-25.2-16.1c-3.2-5.3-4.7-11.5-8.1-16.7c-5.9-8.7-16.4-12.8-26.3-16.4
		c-4.6-1.7-9.7-3.4-14.2-1.7c-4.6,1.7-7.2,8.5-3.4,11.6c1.5,1.2,3.5,1.4,5.3,1.9c9.6,2.3,16.9,10.1,22.1,18.5s8.9,17.7,14.6,25.7
		c14.8,20.8,43.8,30.3,68,22.3c1.8-0.6,4.2-1.1,5.4,0.4c0.6,0.8,0.6,1.9,0.6,2.9c-0.1,14.2-0.2,28.5-0.3,42.7
		c-0.1,13.1-1.9,29.1-13.9,34.5c-3.6,1.6-8.3,2.5-9.5,6.2c11.6,7.1,27.7,6,38.1-2.8c13-10.9,15.4-29.9,14.4-46.8
		c-1.1-16.9-4.7-34.2-0.4-50.6c1.5-5.7,3.9-11.1,7.5-15.8c5.3,32-1.4,64.7-0.2,97.2c0.3,7,0.9,14-0.7,20.8
		c-1.6,6.8-5.8,13.4-12.3,15.8c3.3,6.9,12.9,8.4,20.1,5.7c12.2-4.6,19.3-17.8,21.1-30.7c1.9-12.9-0.4-26-1-39.1
		c-0.6-11.6,0.1-23.3,0.8-34.9c0.8-12.9,1.5-25.8,2.3-38.7c6.1,1.6,7.2,9.7,7,15.9c-0.5,26-1,52.1-1.5,78.1c-0.2,8.4-0.3,17,2.2,25
		c4.8,15.4,19.7,27,35.8,27.8c1,0.1,2.1,0,2.9-0.6c1.4-1.1,1.1-3.3,0.5-5c-2.4-6-7.3-10.7-9.7-16.6c-2-5.1-2.1-10.7-2.1-16.1
		c-0.2-28.6-0.4-57.3-0.6-85.9c0-5.8,0-11.8,2.2-17.1c4.6,17.7,6.8,36,6.4,54.3c-0.2,10.7-1.3,21.4,0.3,32s6.6,21.2,15.8,26.7
		c8,4.9,17.9,5.2,27.3,5.3c2.6,0,6.2-0.7,6.3-3.3c0-0.9-0.4-1.7-0.9-2.4c-4.1-6.2-12.9-7.6-17.2-13.7c-2.8-4-3.1-9.2-3.2-14.1
		c-0.3-10.3-0.5-20.7-0.6-31c-0.2-18.8-0.1-37.6-1.3-56.3c-0.5-7.2-1.4-15.1-6.3-20.4c-5.2-5.6-14.5-8.2-15.7-15.7
		c32.9-0.5,65.5-13.4,89.9-35.7"/>
	<path class="st28" d="M522.8,159.8c8.1-0.4,16.3-1.1,24.3-0.1c8,1,15.6,3.8,23,6.9c8.8,3.7,17.8,8.5,22.8,16.6
		c3.6,5.8,4.8,12.7,5.9,19.4c3.2,18.9,6.2,39.1-1.5,56.6c-5.5,12.4-15.9,22.2-27.8,28.8c-11.9,6.6-25.2,10.1-38.6,12.7
		c-40.2,7.7-82.1,6.2-121.7-4.2c-4.3-1.1-8.5-2.3-12.5-4.2c-5.1-2.3-9.6-5.6-14-9c-9.9-7.6-19.3-16.4-24.6-27.6
		c-4.9-10.4-5.9-22.2-6.8-33.7c-0.5-6.9-1.1-13.9,0.6-20.6c2.2-9.1,8.2-16.7,14-24c14.7-18.5,46.6-18.8,67.8-18.9
		C463.3,158.5,493,161.2,522.8,159.8z"/>
	<path class="st28" d="M423.7,314.2"/>
	<path class="st28" d="M309.5,224.8c-2.6-21-5.3-42.2-3-63.3s10.1-42.2,25.5-56.7c1.1-1,2.2-2,2.9-3.3c1.3-2.6,0.5-5.6-0.2-8.4
		c-4-15.6-5.5-31.9-4.3-47.9c0.5-6,1.5-12.4,5.7-16.8c7.7-7.8,20.8-4.5,30.8,0.2c9.9,4.6,19.5,10.1,28.6,16.2
		c4.4,3,8.9,6.2,14.2,6.9c3.8,0.5,7.6-0.3,11.3-1.2c23.5-5.2,47.7-9.5,71.6-6.6c10.4,1.3,20.6,3.9,31.1,4.5
		c10.7,0.6,21.6-0.9,31.8-4.4c4.1-1.4,8.1-3.2,11.6-5.8c3.2-2.5,5.8-5.6,9.1-8c8-5.8,18.6-6,28.5-6c1.8,0,3.8,0,5.4,1
		c2.3,1.4,3.1,4.4,3.6,7.1c1.2,5.9,2.4,11.9,2.7,17.9c0.4,9.4-1.6,18.7-1.5,28c0.1,9.4,2.8,19.5,10.4,25"/>
	<path class="st28" d="M625,103.2c1.5,4.2,3,8.5,4.4,12.8c12,37.2,12.8,83.5,4.9,121.9"/>
	<path class="st28" d="M437.2,313.3c-2.4,0.6-8.4-1.2-9-1.1c-0.7,0.2-1.5,0-2.3-0.1c-3.4-0.6-6.7-1.2-10.1-1.8
		c-9-1.6-18.1-3.3-26.8-6.1c-9.2-3-17.8-7.2-26.1-11.9c-4.2-2.4-8.3-4.8-12-7.7c-7.6-5.8-13.6-13.1-19.6-20.3
		c-2.9-3.6-5.9-7.1-8.8-10.7"/>
	<path class="st28" d="M309.5,224.8c0.9,3.4,1.3,9.2,1.4,12.7c-37.5-0.3-75.3,0.4-112.2,7.8c-1.3,0.3-2.9,1.3-2.2,2.4
		c0.4,0.6,1.3,0.5,2.1,0.4c33.2-5.8,67-8.6,100.8-8.1c2.8,0,5.5,0.1,8.2,0.3c3.2,0.2,6.5,0.7,9.1,2.6c2,1.5,3.3,3.7,3.7,6.2
		c0.1,0.5,0.1,1.1-0.3,1.5c-0.3,0.3-0.8,0.5-1.3,0.5c-2.3,0.4-4.6,0.5-6.9,0.6c-38.9,1.9-78,6.3-115.1,18.3c0.9,1.7,3.4,1.4,5.3,0.8
		c16-4.9,32.4-7.9,48.9-10.6c22-3.6,44.2-6.6,66.4-6.4c1,0,4.3-0.7,5-0.1"/>
	<path class="st28" d="M634.3,237.8c40.9-2.3,87.9,0.3,128.1,7.8c0.5,0.1,1.2,0.3,1.4,0.7c0.3,0.6-0.2,1.4-0.8,1.7
		c-0.7,0.3-1.4,0.1-2.1,0c-39.2-7.4-79.3-10-119.1-7.7c-0.8,0-5.4-0.3-6.1,0.1c-1.1,0.7-1.9,2.8-2.2,4c-0.6,2.3-0.9,5.2,1.2,6.2
		c0.7,0.3,5.6,0.2,6.4,0.2c40.5,1.6,81.1,6.5,119.9,18.3c0.9,0.3,2.1,1.2,1.5,1.9c-2.2,0.4-4.5-0.2-6.7-0.8
		c-38.7-10.9-78.9-15.8-119.1-16.8c-0.8,0-1.7,0-2.3,0.4c-0.7,0.5-1.1,1.3-1.4,2.1c-2.7,6.6-13.8,19.9-18.2,25.5"/>
	<path class="st28" d="M329.1,323.9c1.1,0,2.3-0.8,2.4-1.9c0.5-3-3.5-5.7-6-3.7C322.9,320.6,326.6,323.9,329.1,323.9z"/>
	<path class="st28" d="M335.1,334.5c0.5,0.8,1.1,1.7,2,2.2s2,0.6,2.8,0c0.7-0.5,0.9-1.4,1-2.3c0.1-0.8,0.1-1.7-0.2-2.5
		c-0.6-1.6-2.3-2.6-4-2.9C333.1,328.4,333.8,332.5,335.1,334.5z"/>
	<path class="st28" d="M318,316.4c1,0.4,2.2,0.3,2.9-0.5c0.7-0.7,0.8-1.8,0.6-2.7c-0.1-0.3-0.2-0.7-0.3-1
		C318.8,307.2,310.8,313.6,318,316.4z"/>
	<path class="st28" d="M342.2,347.2c0.5,0.8,1.2,1.3,1.9,1.9c0.5,0.4,0.9,0.8,1.5,1c1.5,0.6,3.4-0.2,3.9-1.7
		c0.6-1.7-0.3-3.5-1.5-4.9c-0.8-0.9-1.8-1.7-2.9-1.9C342.3,341.3,340.9,345.1,342.2,347.2z"/>
	<path class="st28" d="M355.3,356.9c0,0.5,0.3,0.9,0.6,1.3c1.4,2.1,3.8,3.8,6.3,3.4c0.4,0,0.7-0.1,1-0.3c0.2-0.2,0.4-0.4,0.6-0.6
		c0.4-0.4,0.7-0.9,0.8-1.5c0.1-0.7-0.2-1.4-0.6-2c-0.4-0.8-0.9-1.6-1.6-2.1c-0.4-0.3-0.9-0.4-1.3-0.5
		C359.1,354.1,355,353.6,355.3,356.9z"/>
	<path class="st28" d="M371.3,362.7c0,0.9,0.6,1.6,1.2,2.3c0.4,0.4,1.1,1.3,2.4,1.8c0.3,0.1,2.5,1,4.4-0.3c0.8-0.5,1.9-1.6,1.7-2.8
		c-0.1-0.6-0.4-1.1-0.9-1.7c-0.4-0.4-0.7-0.9-1.2-1.2c-0.2-0.2-1.3-1-2.7-1.1C374,359.5,371.4,361,371.3,362.7z"/>
	<path class="st28" d="M390.5,366c0.2,0.2,0.6,0.6,1.2,1c1.6,0.8,3.3,0.1,3.5,0c0.1-0.1,2.1-0.9,2.5-3c0.1-0.3,0.3-1.6-0.4-2.8
		c-0.6-0.9-1.4-1.2-2.1-1.5c-0.6-0.3-2.6-1.1-4.3-0.1c-0.2,0.1-0.8,0.4-1.2,1.1C388.7,362.3,389.4,364.7,390.5,366z"/>
</g>
</svg>
