<?xml version="1.0" encoding="utf-8"?>
<!-- Generator: Adobe Illustrator 19.2.1, SVG Export Plug-In . SVG Version: 6.00 Build 0)  -->
<svg version="1.1" id="Layer_2" xmlns="http://www.w3.org/2000/svg" xmlns:xlink="http://www.w3.org/1999/xlink" x="0px" y="0px"
	 viewBox="0 0 960 560" style="enable-background:new 0 0 960 560;" xml:space="preserve">
<style type="text/css">
	.st0{fill:none;stroke:#231F20;stroke-linecap:round;}
</style>
<path class="st0" d="M437.2,313.3c-11.3,6.8-20,17.9-23.8,30.6c-0.7,2.2-1.3,4.6-2.8,6.3c-1.9,2-4.7,2.7-7.4,3.2
	c-10.1,1.9-20.5,3.1-30.6,1.2s-19.9-7.4-25.2-16.1c-3.2-5.3-4.7-11.5-8.1-16.7c-5.9-8.7-16.4-12.8-26.3-16.4
	c-4.6-1.7-9.7-3.4-14.2-1.7c-4.6,1.7-7.2,8.5-3.4,11.6c1.5,1.2,3.5,1.4,5.3,1.9c9.6,2.3,16.9,10.1,22.1,18.5s8.9,17.7,14.6,25.7
	c14.8,20.8,43.8,30.3,68,22.3c1.8-0.6,4.2-1.1,5.4,0.4c0.6,0.8,0.6,1.9,0.6,2.9c-0.1,14.2-0.2,28.5-0.3,42.7
	c-0.1,13.1-1.9,29.1-13.9,34.5c-3.6,1.6-8.3,2.5-9.5,6.2c11.6,7.1,27.7,6,38.1-2.8c13-10.9,15.4-29.9,14.4-46.8
	c-1.1-16.9-4.7-34.2-0.4-50.6c1.5-5.7,3.9-11.1,7.5-15.8c5.3,32-1.4,64.7-0.2,97.2c0.3,7,0.9,14-0.7,20.8
	c-1.6,6.8-5.8,13.4-12.3,15.8c3.3,6.9,12.9,8.4,20.1,5.7c12.2-4.6,19.3-17.8,21.1-30.7c1.9-12.9-0.4-26-1-39.1
	c-0.6-11.6,0.1-23.3,0.8-34.9c0.8-12.9,1.5-25.8,2.3-38.7c6.1,1.6,7.2,9.7,7,15.9c-0.5,26-1,52.1-1.5,78.1c-0.2,8.4-0.3,17,2.2,25
	c4.8,15.4,19.7,27,35.8,27.8c1,0.1,2.1,0,2.9-0.6c1.4-1.1,1.1-3.3,0.5-5c-2.4-6-7.3-10.7-9.7-16.6c-2-5.1-2.1-10.7-2.1-16.1
	c-0.2-28.6-0.4-57.3-0.6-85.9c0-5.8,0-11.8,2.2-17.1c4.6,17.7,6.8,36,6.4,54.3c-0.2,10.7-1.3,21.4,0.3,32s6.6,21.2,15.8,26.7
	c8,4.9,17.9,5.2,27.3,5.3c2.6,0,6.2-0.7,6.3-3.3c0-0.9-0.4-1.7-0.9-2.4c-4.1-6.2-12.9-7.6-17.2-13.7c-2.8-4-3.1-9.2-3.2-14.1
	c-0.3-10.3-0.5-20.7-0.6-31c-0.2-18.8-0.1-37.6-1.3-56.3c-0.5-7.2-1.4-15.1-6.3-20.4c-5.2-5.6-14.5-8.2-15.7-15.7
	c32.9-0.5,65.5-13.4,89.9-35.7"/>
<path class="st0" d="M522.8,159.8c8.1-0.4,16.3-1.1,24.3-0.1c8,1,15.6,3.8,23,6.9c8.8,3.7,17.8,8.5,22.8,16.6
	c3.6,5.8,4.8,12.7,5.9,19.4c3.2,18.9,6.2,39.1-1.5,56.6c-5.5,12.4-15.9,22.2-27.8,28.8c-11.9,6.6-25.2,10.1-38.6,12.7
	c-40.2,7.7-82.1,6.2-121.7-4.2c-4.3-1.1-8.5-2.3-12.5-4.2c-5.1-2.3-9.6-5.6-14-9c-9.9-7.6-19.3-16.4-24.6-27.6
	c-4.9-10.4-5.9-22.2-6.8-33.7c-0.5-6.9-1.1-13.9,0.6-20.6c2.2-9.1,8.2-16.7,14-24c14.7-18.5,46.6-18.8,67.8-18.9
	C463.3,158.5,493,161.2,522.8,159.8z"/>
<path class="st0" d="M423.7,314.2"/>
<path class="st0" d="M309.5,224.8c-2.6-21-5.3-42.2-3-63.3s10.1-42.2,25.5-56.7c1.1-1,2.2-2,2.9-3.3c1.3-2.6,0.5-5.6-0.2-8.4
	c-4-15.6-5.5-31.9-4.3-47.9c0.5-6,1.5-12.4,5.7-16.8c7.7-7.8,20.8-4.5,30.8,0.2c9.9,4.6,19.5,10.1,28.6,16.2c4.4,3,8.9,6.2,14.2,6.9
	c3.8,0.5,7.6-0.3,11.3-1.2c23.5-5.2,47.7-9.5,71.6-6.6c10.4,1.3,20.6,3.9,31.1,4.5c10.7,0.6,21.6-0.9,31.8-4.4
	c4.1-1.4,8.1-3.2,11.6-5.8c3.2-2.5,5.8-5.6,9.1-8c8-5.8,18.6-6,28.5-6c1.8,0,3.8,0,5.4,1c2.3,1.4,3.1,4.4,3.6,7.1
	c1.2,5.9,2.4,11.9,2.7,17.9c0.4,9.4-1.6,18.7-1.5,28c0.1,9.4,2.8,19.5,10.4,25"/>
<path class="st0" d="M625,103.2c1.5,4.2,3,8.5,4.4,12.8c12,37.2,12.8,83.5,4.9,121.9"/>
<path class="st0" d="M437.2,313.3c-2.4,0.6-8.4-1.2-9-1.1c-0.7,0.2-1.5,0-2.3-0.1c-3.4-0.6-6.7-1.2-10.1-1.8
	c-9-1.6-18.1-3.3-26.8-6.1c-9.2-3-17.8-7.2-26.1-11.9c-4.2-2.4-8.3-4.8-12-7.7c-7.6-5.8-13.6-13.1-19.6-20.3
	c-2.9-3.6-5.9-7.1-8.8-10.7"/>
<path class="st0" d="M309.5,224.8c0.9,3.4,1.3,9.2,1.4,12.7c-37.5-0.3-75.3,0.4-112.2,7.8c-1.3,0.3-2.9,1.3-2.2,2.4
	c0.4,0.6,1.3,0.5,2.1,0.4c33.2-5.8,67-8.6,100.8-8.1c2.8,0,5.5,0.1,8.2,0.3c3.2,0.2,6.5,0.7,9.1,2.6c2,1.5,3.3,3.7,3.7,6.2
	c0.1,0.5,0.1,1.1-0.3,1.5c-0.3,0.3-0.8,0.5-1.3,0.5c-2.3,0.4-4.6,0.5-6.9,0.6c-38.9,1.9-78,6.3-115.1,18.3c0.9,1.7,3.4,1.4,5.3,0.8
	c16-4.9,32.4-7.9,48.9-10.6c22-3.6,44.2-6.6,66.4-6.4c1,0,4.3-0.7,5-0.1"/>
<path class="st0" d="M634.3,237.8c40.9-2.3,87.9,0.3,128.1,7.8c0.5,0.1,1.2,0.3,1.4,0.7c0.3,0.6-0.2,1.4-0.8,1.7
	c-0.7,0.3-1.4,0.1-2.1,0c-39.2-7.4-79.3-10-119.1-7.7c-0.8,0-5.4-0.3-6.1,0.1c-1.1,0.7-1.9,2.8-2.2,4c-0.6,2.3-0.9,5.2,1.2,6.2
	c0.7,0.3,5.6,0.2,6.4,0.2c40.5,1.6,81.1,6.5,119.9,18.3c0.9,0.3,2.1,1.2,1.5,1.9c-2.2,0.4-4.5-0.2-6.7-0.8
	c-38.7-10.9-78.9-15.8-119.1-16.8c-0.8,0-1.7,0-2.3,0.4c-0.7,0.5-1.1,1.3-1.4,2.1c-2.7,6.6-13.8,19.9-18.2,25.5"/>
<path class="st0" d="M329.1,323.9c1.1,0,2.3-0.8,2.4-1.9c0.5-3-3.5-5.7-6-3.7C322.9,320.6,326.6,323.9,329.1,323.9z"/>
<path class="st0" d="M335.1,334.5c0.5,0.8,1.1,1.7,2,2.2s2,0.6,2.8,0c0.7-0.5,0.9-1.4,1-2.3c0.1-0.8,0.1-1.7-0.2-2.5
	c-0.6-1.6-2.3-2.6-4-2.9C333.1,328.4,333.8,332.5,335.1,334.5z"/>
<path class="st0" d="M318,316.4c1,0.4,2.2,0.3,2.9-0.5c0.7-0.7,0.8-1.8,0.6-2.7c-0.1-0.3-0.2-0.7-0.3-1
	C318.8,307.2,310.8,313.6,318,316.4z"/>
<path class="st0" d="M342.2,347.2c0.5,0.8,1.2,1.3,1.9,1.9c0.5,0.4,0.9,0.8,1.5,1c1.5,0.6,3.4-0.2,3.9-1.7c0.6-1.7-0.3-3.5-1.5-4.9
	c-0.8-0.9-1.8-1.7-2.9-1.9C342.3,341.3,340.9,345.1,342.2,347.2z"/>
<path class="st0" d="M355.3,356.9c0,0.5,0.3,0.9,0.6,1.3c1.4,2.1,3.8,3.8,6.3,3.4c0.4,0,0.7-0.1,1-0.3c0.2-0.2,0.4-0.4,0.6-0.6
	c0.4-0.4,0.7-0.9,0.8-1.5c0.1-0.7-0.2-1.4-0.6-2c-0.4-0.8-0.9-1.6-1.6-2.1c-0.4-0.3-0.9-0.4-1.3-0.5
	C359.1,354.1,355,353.6,355.3,356.9z"/>
<path class="st0" d="M371.3,362.7c0,0.9,0.6,1.6,1.2,2.3c0.4,0.4,1.1,1.3,2.4,1.8c0.3,0.1,2.5,1,4.4-0.3c0.8-0.5,1.9-1.6,1.7-2.8
	c-0.1-0.6-0.4-1.1-0.9-1.7c-0.4-0.4-0.7-0.9-1.2-1.2c-0.2-0.2-1.3-1-2.7-1.1C374,359.5,371.4,361,371.3,362.7z"/>
<path class="st0" d="M390.5,366c0.2,0.2,0.6,0.6,1.2,1c1.6,0.8,3.3,0.1,3.5,0c0.1-0.1,2.1-0.9,2.5-3c0.1-0.3,0.3-1.6-0.4-2.8
	c-0.6-0.9-1.4-1.2-2.1-1.5c-0.6-0.3-2.6-1.1-4.3-0.1c-0.2,0.1-0.8,0.4-1.2,1.1C388.7,362.3,389.4,364.7,390.5,366z"/>
</svg>
