<?xml version="1.0" encoding="utf-8"?>
<!-- Generator: Adobe Illustrator 19.2.1, SVG Export Plug-In . SVG Version: 6.00 Build 0)  -->
<svg version="1.1" id="Layer_1" xmlns="http://www.w3.org/2000/svg" xmlns:xlink="http://www.w3.org/1999/xlink" x="0px" y="0px"
	 viewBox="0 0 960 560" style="enable-background:new 0 0 960 560;" xml:space="preserve">
<style type="text/css">
	.st0{fill:#FFFFFF;stroke:#000000;stroke-miterlimit:10;}
</style>
<g>
	<g>
		<g>
			<path class="st0" d="M713.4,6h-467C224.1,6,206,23.7,206,45.5v469c0,21.8,18.1,39.5,40.5,39.5h467c22.3,0,40.6-17.7,40.6-39.5
				v-469C754,23.7,735.8,6,713.4,6z M368.5,473h-81.3V211.5h81.3V473z M327.9,175.7c-26.1,0-47.1-21.1-47.1-47.1
				c0-26,21.1-47.1,47.1-47.1c26,0,47.1,21.1,47.1,47.1C375,154.6,353.9,175.7,327.9,175.7z M672.9,473h-81.2V345.8
				c0-30.3-0.6-69.3-42.2-69.3c-42.3,0-48.7,33-48.7,67.2V473h-81.3V211.5h78v35.7h1.1c10.9-20.6,37.4-42.2,76.9-42.2
				c82.2,0,97.4,54.1,97.4,124.6V473z"/>
		</g>
	</g>
</g>
</svg>
