<?xml version="1.0" encoding="utf-8"?>
<!-- Generator: Adobe Illustrator 19.2.1, SVG Export Plug-In . SVG Version: 6.00 Build 0)  -->
<svg version="1.1" id="Layer_1" xmlns="http://www.w3.org/2000/svg" xmlns:xlink="http://www.w3.org/1999/xlink" x="0px" y="0px"
	 viewBox="0 0 960 560" style="enable-background:new 0 0 960 560;" xml:space="preserve">
<style type="text/css">
	.st0{fill:none;stroke:#000000;stroke-width:0.5;stroke-miterlimit:10;}
</style>
<g>
	<path class="st0" d="M292.5,301.9c2.6-0.8,5.2-1.8,7.6-3c2.4-1.2,4.5-2.6,6.2-4.1c1.7-1.5,3-3.1,3.8-4.7c0.8-1.7,1-3.3,0.5-5
		c-0.6-2-2-3.6-4.2-4.6c-2.1-1.1-4.8-1.8-7.9-2.3c-3.1-0.5-6.6-0.8-10.4-0.9c-3.8-0.1-7.8-0.2-11.7-0.2c-4-0.1-7.9-0.2-11.8-0.4
		c-3.9-0.2-7.4-0.7-10.6-1.4s-5.9-1.8-8.2-3.2s-3.8-3.4-4.6-5.9c-0.8-2.5-0.7-5.1,0.1-7.7c0.9-2.6,2.5-5.2,5-7.7
		c2.4-2.5,5.7-4.8,9.7-7c4-2.2,8.8-4.2,14.3-5.9c10-3.1,18.3-4.2,24.9-3.3c6.6,0.8,11.9,3.4,16,7.5l-8.3,5.4
		c-1.7-1.7-3.6-3.1-5.8-4.3c-2.2-1.2-4.6-2-7.2-2.5c-2.7-0.5-5.6-0.6-8.8-0.3c-3.2,0.3-6.6,1-10.4,2.1c-3.3,1-6.2,2.2-8.5,3.6
		c-2.3,1.4-4.2,2.7-5.5,4.2c-1.4,1.4-2.3,2.9-2.7,4.3c-0.5,1.4-0.5,2.8-0.1,4c0.5,1.7,1.9,3.1,4,4c2.2,0.9,4.8,1.6,8,2
		c3.2,0.4,6.7,0.7,10.7,0.8c4,0.1,8,0.2,12.1,0.3c4.1,0.1,8.1,0.3,12.1,0.5c4,0.2,7.6,0.7,10.9,1.4c3.3,0.7,6,1.8,8.3,3.1
		c2.3,1.4,3.8,3.2,4.5,5.5c0.8,2.6,0.8,5.3-0.1,8.1c-0.9,2.8-2.7,5.5-5.3,8.2c-2.7,2.7-6.2,5.3-10.6,7.7s-9.8,4.6-16,6.5
		c-5.1,1.6-9.7,2.6-13.9,3.1c-4.2,0.5-8,0.6-11.5,0.2c-3.5-0.4-6.6-1.2-9.3-2.5c-2.8-1.3-5.2-2.9-7.4-4.9l8.8-5.4
		c1.8,1.8,3.9,3.3,6.3,4.4c2.4,1.1,5,1.9,7.9,2.3c2.9,0.4,5.9,0.5,9.2,0.1C285.8,303.7,289.1,303,292.5,301.9z"/>
	<path class="st0" d="M386.2,277.3c-6.2,1.9-12.2,3-17.9,3.3c-5.7,0.3-10.8-0.2-15.4-1.4c-4.5-1.2-8.4-3-11.5-5.5
		c-3.1-2.5-5.2-5.5-6.3-9.1c-1.2-3.8-1.2-7.6,0-11.6c1.1-4,3.2-7.7,6.3-11.4c3.1-3.6,7-6.9,11.9-10c4.8-3,10.4-5.5,16.6-7.4
		c6.2-1.9,12.1-3,17.8-3.3c5.6-0.3,10.7,0.1,15.3,1.2c4.5,1.1,8.3,2.8,11.4,5.2c3.1,2.4,5.2,5.3,6.2,8.8c1.2,3.9,1.2,7.8,0.1,11.9
		c-1.1,4.1-3.2,7.9-6.3,11.7c-3.1,3.7-7,7.1-11.8,10.2C397.9,272.9,392.4,275.4,386.2,277.3z M388.1,272.6c3.2-1,5.9-2.4,8.3-4.2
		c2.3-1.8,4.2-3.9,5.6-6.2c1.4-2.3,2.3-4.8,2.7-7.4c0.4-2.6,0.1-5.2-0.6-7.8c-1.1-3.7-2.7-7-4.7-9.9c-2-2.9-4.5-5.2-7.5-6.9
		c-3-1.7-6.6-2.7-10.6-2.9c-4.1-0.3-8.7,0.4-14.1,2.1c-2.7,0.8-5.2,2.1-7.4,3.9c-2.2,1.8-4.1,3.8-5.5,6.1c-1.4,2.3-2.4,4.8-2.8,7.4
		c-0.5,2.6-0.3,5.2,0.5,7.8c1.1,3.7,2.8,7,5.1,9.8c2.3,2.9,5,5.1,8.1,6.8c3.1,1.7,6.6,2.7,10.6,3C379.5,274.5,383.7,274,388.1,272.6
		z"/>
	<path class="st0" d="M428.8,207.4l16.2-5l2.9,9.3c3.8-4.9,8.2-9.1,12.9-12.4c4.8-3.4,9.9-5.9,15.4-7.6c2.8-0.9,5.6-1.3,8.4-1.2
		c2.8,0,5.3,0.5,7.5,1.3c2.3,0.8,4.2,2,5.9,3.6c1.7,1.5,2.8,3.4,3.5,5.5l11.2,36.5l-16.2,5l-10.7-34.8c-1-3.3-3-5.5-6-6.5
		c-3-1-6.3-0.9-10.1,0.3c-1.7,0.5-3.5,1.3-5.3,2.2c-1.8,0.9-3.6,2-5.4,3.3c-1.8,1.3-3.5,2.6-5.2,4.1c-1.7,1.5-3.3,3.1-4.8,4.8
		l11.6,37.7l-16.2,5L428.8,207.4z"/>
	<path class="st0" d="M506.7,183.5l18.4-5.7l42.8,27.1l14.4-44.6l8.6-2.7l-23.2,72.5c-1,3-2.4,5.8-4.1,8.3s-3.7,4.8-5.9,6.7
		c-2.2,2-4.5,3.7-7,5.1c-2.5,1.4-5,2.5-7.6,3.3c-1.8,0.5-3.5,0.9-5.2,1.1c-1.7,0.2-3.2,0.2-4.5,0.1c-1.3-0.2-2.5-0.5-3.4-1
		c-0.9-0.5-1.5-1.2-1.8-2.1c-0.2-0.7-0.2-1.5,0-2.3c0.2-0.8,0.7-1.6,1.4-2.4c0.7-0.8,1.6-1.5,2.7-2.2c1.1-0.7,2.4-1.2,3.8-1.7
		c1.7-0.5,3.1-0.8,4.2-0.9c1.1-0.1,2-0.1,2.9,0c0.9,0.1,1.8,0.1,2.8,0c1,0,2.3-0.3,3.8-0.8c1.7-0.5,3.1-1.3,4.2-2.3
		c1.1-1,2.1-2.1,2.9-3.3c0.8-1.2,1.4-2.5,1.9-3.8c0.5-1.3,0.9-2.5,1.3-3.7l3.1-9.3L506.7,183.5z"/>
	<path class="st0" d="M676.7,187l-16.2,5l-2.1-7c-1.6,1.5-3.2,3-4.8,4.5s-3.3,3-5.2,4.4c-1.9,1.4-4.1,2.8-6.5,4.1
		c-2.5,1.3-5.4,2.5-8.8,3.5c-3.2,1-6.2,1.5-8.9,1.7c-2.8,0.1-5.3-0.1-7.4-0.7c-2.2-0.6-4-1.5-5.4-2.7c-1.4-1.3-2.4-2.8-3-4.6
		c-0.7-2.2-0.6-4.4,0.3-6.5c0.9-2.2,2.3-4.3,4.2-6.5c2-2.1,4.4-4.2,7.3-6.3c2.9-2.1,6-4.1,9.3-6c3.3-2,6.8-3.8,10.4-5.7
		c3.6-1.8,7.2-3.6,10.6-5.3l-1-3.2c-0.7-2.3-1.7-4.1-2.9-5.5c-1.2-1.4-2.7-2.3-4.3-2.9c-1.7-0.6-3.5-0.8-5.6-0.6
		c-2.1,0.2-4.3,0.6-6.8,1.4c-2.7,0.8-4.9,1.7-6.5,2.7c-1.6,1-2.8,2-3.5,3c-0.8,1-1.2,2.1-1.2,3.1c-0.1,1,0,2,0.3,3
		c0.3,0.9,0.4,1.8,0.4,2.7c0,0.9-0.2,1.7-0.6,2.5c-0.4,0.8-1.1,1.6-2,2.2c-0.9,0.7-2.2,1.3-3.8,1.8c-1.3,0.4-2.5,0.6-3.6,0.6
		c-1.1,0-2.2-0.1-3.1-0.4c-0.9-0.3-1.7-0.8-2.3-1.4c-0.6-0.6-1.1-1.3-1.3-2.2c-0.5-1.7-0.1-3.5,1.2-5.5c1.3-2,3.3-4,6-6
		c2.7-2,5.9-3.9,9.7-5.7c3.8-1.8,7.9-3.4,12.3-4.8c5.4-1.6,10-2.7,13.9-3.2c3.9-0.5,7.2-0.5,9.8,0c2.6,0.5,4.7,1.4,6.2,2.8
		c1.5,1.4,2.6,3.1,3.2,5.1L676.7,187z M651.4,162.4c-2.2,1.2-4.4,2.5-6.7,3.8c-2.3,1.4-4.6,2.8-6.7,4.3c-2.2,1.5-4.2,3-6.1,4.5
		c-1.9,1.5-3.5,3-4.9,4.5c-1.3,1.5-2.3,2.9-2.9,4.3c-0.6,1.4-0.7,2.7-0.4,3.9c0.4,1.2,1.1,2.3,2.2,3.2c1.1,0.9,2.4,1.6,3.8,2
		c1.5,0.5,3.1,0.7,4.8,0.7c1.7,0,3.5-0.3,5.2-0.8c1.8-0.6,3.5-1.2,5.1-2c1.5-0.8,3-1.7,4.4-2.7c1.4-1,2.7-2,4.1-3.2
		c1.3-1.2,2.7-2.4,4.1-3.6L651.4,162.4z"/>
	<path class="st0" d="M263.2,353.6l33.5-10.3c5.5-1.7,10.8-2.9,15.9-3.5c5.1-0.6,9.7-0.7,13.7-0.2c4.1,0.5,7.5,1.6,10.3,3.3
		c2.8,1.7,4.6,4.1,5.6,7c0.9,3,0.7,5.9-0.6,8.8c-1.3,2.8-3.4,5.5-6.2,8s-6.2,4.7-10.1,6.7c-4,2-8.1,3.6-12.4,5
		c-1.8,0.6-3.8,1.1-5.8,1.7c-2,0.6-4,1.1-5.9,1.5c-1.9,0.5-3.7,0.9-5.3,1.2c-1.6,0.4-3,0.6-4,0.7l9.4,30.6l-17.7,5.4L263.2,353.6z
		 M290.7,379.9c2.1-0.3,4.3-0.6,6.7-1c2.4-0.4,4.8-1,7.2-1.7c3.8-1.2,7.1-2.6,9.7-4.1s4.7-3.3,6.2-5.1c1.5-1.8,2.5-3.7,2.9-5.7
		c0.4-1.9,0.3-3.9-0.2-5.8c-0.7-2.2-1.9-4-3.7-5.5c-1.8-1.4-4-2.5-6.5-3.1c-2.5-0.6-5.3-0.8-8.4-0.6s-6.3,0.8-9.6,1.8l-12.6,3.9
		L290.7,379.9z"/>
	<path class="st0" d="M353.3,314c1.3-0.4,2.5-0.6,3.7-0.7c1.2-0.1,2.3,0,3.3,0.2c1,0.2,1.8,0.5,2.5,1c0.7,0.5,1.1,1,1.4,1.7
		c0.2,0.7,0.2,1.4-0.2,2.2s-0.8,1.5-1.5,2.2s-1.6,1.4-2.6,2c-1.1,0.6-2.2,1.1-3.5,1.5c-1.3,0.4-2.5,0.6-3.7,0.7
		c-1.2,0.1-2.3,0-3.3-0.2c-1-0.2-1.8-0.5-2.5-1c-0.7-0.5-1.1-1-1.4-1.7c-0.2-0.7-0.2-1.4,0.2-2.2c0.3-0.8,0.8-1.5,1.5-2.2
		c0.7-0.7,1.6-1.4,2.6-2C350.9,314.8,352.1,314.3,353.3,314z M354,344.3l10.5-6.4l4.7-1.4l16,51.9l-16.1,4.9L354,344.3z"/>
	<path class="st0" d="M389.2,331.5l16.2-5l2.9,9.3c3.8-4.9,8.2-9.1,12.9-12.4c4.8-3.3,9.9-5.9,15.4-7.6c2.8-0.9,5.6-1.3,8.4-1.2
		c2.8,0,5.3,0.5,7.5,1.3c2.3,0.8,4.2,2,5.9,3.6c1.7,1.5,2.8,3.4,3.5,5.5l11.2,36.5l-16.2,5l-10.7-34.8c-1-3.3-3-5.5-6-6.5
		c-3-1-6.3-0.9-10.1,0.3c-1.7,0.5-3.5,1.3-5.3,2.2c-1.8,0.9-3.6,2-5.4,3.3c-1.8,1.3-3.5,2.6-5.2,4.1c-1.7,1.5-3.3,3.1-4.8,4.8
		l11.6,37.7l-16.2,5L389.2,331.5z"/>
	<path class="st0" d="M528.2,345.7c-5.5,1.7-10.9,2.6-16.1,2.8c-5.2,0.2-10-0.3-14.3-1.4c-4.3-1.1-8-2.8-11-5.2
		c-3-2.3-5-5.2-6.1-8.6c-1.3-4.1-1.5-8.1-0.6-12.2c0.9-4.1,2.6-7.9,5.4-11.5c2.7-3.6,6.3-6.9,10.8-9.8s9.7-5.3,15.8-7.2
		c5.4-1.6,10.4-2.6,15.3-2.8c4.8-0.2,9.1,0.2,12.9,1.2c3.8,1,7,2.5,9.5,4.6c2.6,2,4.3,4.5,5.2,7.3l-60.8,18.6c1,3.4,2.7,6.4,5,8.8
		c2.3,2.5,5.1,4.4,8.2,5.7c3.2,1.3,6.7,2.1,10.6,2.2c3.9,0.1,8-0.5,12.2-1.8c3.5-1.1,6.8-2.5,9.8-4.2c3-1.7,5.7-3.5,7.9-5.5
		c2.3-2,4.1-4,5.5-6s2.2-4,2.5-5.8l5-0.1c-0.4,3-1.5,6-3.4,9.1c-1.9,3.1-4.3,6-7.3,8.8c-2.9,2.8-6.3,5.3-10.1,7.5
		C536.4,342.7,532.4,344.4,528.2,345.7z M533.4,305.1c-0.6-1.9-1.7-3.6-3.3-4.9c-1.6-1.3-3.5-2.3-5.8-2.9c-2.3-0.6-4.8-0.9-7.6-0.8
		c-2.8,0.1-5.6,0.6-8.6,1.5c-2.4,0.7-4.7,1.8-6.7,3.2c-2,1.4-3.7,2.9-5.1,4.7c-1.4,1.7-2.4,3.6-3,5.6c-0.6,2-0.8,4-0.4,6
		L533.4,305.1z"/>
	<path class="st0" d="M566,277.3l16.1-4.9l3,9.6c1.1-1.9,2.4-3.8,3.8-5.6c1.4-1.9,3-3.6,4.6-5.2c1.7-1.6,3.5-3,5.4-4.2
		c1.9-1.2,4-2.2,6.1-2.8c1.8-0.5,3.5-0.9,5.1-1c1.6-0.1,3.1-0.1,4.4,0.1c1.3,0.2,2.4,0.6,3.3,1.1c0.9,0.5,1.5,1.2,1.7,2
		c0.5,1.6,0.1,3.1-1.3,4.5c-1.4,1.3-3.5,2.5-6.5,3.4c-1.8,0.6-3.3,0.9-4.5,1c-1.2,0.1-2.2,0.1-3.2,0.1c-1,0-2,0-2.9,0
		c-1,0-2.2,0.3-3.5,0.7c-1.1,0.3-2.1,0.9-3,1.6c-1,0.7-1.9,1.6-2.8,2.7c-0.9,1-1.7,2.2-2.5,3.5c-0.8,1.3-1.6,2.7-2.4,4.2l10.8,35.2
		l-16.1,4.9L566,277.3z"/>
	<path class="st0" d="M684,297.9c-6.2,1.9-12.2,3-17.9,3.3c-5.7,0.3-10.8-0.2-15.4-1.4c-4.5-1.2-8.4-3-11.5-5.5
		c-3.1-2.5-5.2-5.5-6.3-9.1c-1.2-3.8-1.2-7.6,0-11.6c1.1-4,3.2-7.7,6.3-11.4c3.1-3.6,7-6.9,11.9-10c4.8-3,10.4-5.5,16.6-7.4
		c6.2-1.9,12.1-3,17.8-3.3c5.6-0.3,10.7,0.1,15.3,1.2c4.5,1.1,8.3,2.8,11.4,5.2c3.1,2.4,5.2,5.3,6.2,8.8c1.2,3.9,1.2,7.8,0.1,11.9
		c-1.1,4.1-3.2,7.9-6.3,11.7c-3.1,3.7-7,7.1-11.8,10.2C695.7,293.5,690.2,296,684,297.9z M685.8,293.3c3.2-1,5.9-2.4,8.3-4.2
		c2.3-1.8,4.2-3.9,5.6-6.2c1.4-2.3,2.3-4.8,2.7-7.4c0.4-2.6,0.1-5.2-0.6-7.8c-1.1-3.7-2.7-7-4.7-9.9c-2-2.9-4.5-5.2-7.5-6.9
		c-3-1.7-6.6-2.7-10.6-2.9c-4.1-0.3-8.7,0.4-14.1,2.1c-2.7,0.8-5.2,2.1-7.4,3.9c-2.2,1.8-4.1,3.8-5.5,6.1c-1.4,2.3-2.4,4.8-2.8,7.4
		c-0.5,2.6-0.3,5.2,0.5,7.8c1.1,3.7,2.8,7,5.1,9.8c2.3,2.9,5,5.1,8.1,6.8c3.1,1.7,6.6,2.7,10.6,3
		C677.3,295.1,681.4,294.6,685.8,293.3z"/>
</g>
</svg>
