<?xml version="1.0" encoding="utf-8"?>
<!-- Generator: Adobe Illustrator 19.2.1, SVG Export Plug-In . SVG Version: 6.00 Build 0)  -->
<svg version="1.1" id="Layer_2" xmlns="http://www.w3.org/2000/svg" xmlns:xlink="http://www.w3.org/1999/xlink" x="0px" y="0px"
	 viewBox="0 0 960 560" style="enable-background:new 0 0 960 560;" xml:space="preserve">
<style type="text/css">
	.st0{fill:none;}
	.st1{fill:#E6E7E8;stroke:#231F20;stroke-linecap:round;stroke-miterlimit:10;}
	.st2{fill:none;stroke:#231F20;stroke-linecap:round;stroke-miterlimit:10;}
</style>
<path class="st0" d="M23,120c0,0,10.7,0,24,0"/>
<line class="st1" x1="479.5" y1="21.2" x2="474.1" y2="119.4"/>
<g id="XMLID_1_">
	<path class="st2" d="M492,21.8c1.5,33,2.9,65.8,4.3,98.6"/>
</g>
<path class="st1" d="M496,119.5c1.4,4.6,2.9,9.2,4.3,13.8"/>
<line class="st1" x1="500.8" y1="135.2" x2="551.5" y2="134.5"/>
<line class="st1" x1="547.2" y1="134.8" x2="567.5" y2="203.5"/>
<rect x="454" y="229.2" class="st2" width="62.3" height="93.8"/>
<line class="st1" x1="470.8" y1="133" x2="470.8" y2="157.2"/>
<path class="st1" d="M500.5,133c0.2,8.1,0.3,16.1,0.5,24.2"/>
<rect x="456.5" y="157.2" class="st2" width="56.7" height="53.6"/>
<line class="st1" x1="567.5" y1="203.5" x2="567.5" y2="369.2"/>
<line class="st1" x1="551.5" y1="134.5" x2="578.5" y2="204"/>
<line class="st1" x1="578.5" y1="204" x2="578.5" y2="293.6"/>
<rect x="454.5" y="330.5" class="st2" width="61.8" height="95.8"/>
<rect x="526.9" y="369.2" class="st2" width="42" height="116.8"/>
<polyline class="st2" points="602.5,453.5 602.5,264 627.8,264 627.8,453.5 "/>
<polyline class="st2" points="578.5,453 578.5,252 602.5,252 602.5,453 "/>
<path class="st2" d="M734.3,398.5c-0.9,0.3-1.3,0.5-1.3,0.5c1-0.3,2-0.7,3-1c0.5-0.3,1.4-0.7,2.5-0.8c0.8-0.1,1.5-0.1,2,0
	c-0.4-0.1-0.7-0.1-0.7-0.2c0-0.1,0.6-0.2,1.8-0.3c-0.4,0.1-0.8,0.2-0.8,0.2c0,0,0,0,1-0.3c0.7-0.2,1.7-0.5,3-0.8
	c0.1-33.2,0.1-66.5,0.2-99.7h-96.1v103.5C677.4,399.1,705.8,398.8,734.3,398.5z"/>
<rect x="452.5" y="437" class="st2" width="66" height="98"/>
<line class="st1" x1="441" y1="265.5" x2="441" y2="369.2"/>
<rect x="407.6" y="495" class="st2" width="35.4" height="52.5"/>
<rect x="528.5" y="494.4" class="st2" width="43.1" height="29.2"/>
<rect x="256.9" y="366" class="st2" width="30.6" height="167.7"/>
<line class="st1" x1="1" y1="372.3" x2="95" y2="424.3"/>
<line class="st1" x1="94.3" y1="425" x2="90.6" y2="559.2"/>
<line class="st1" x1="1" y1="250.3" x2="87" y2="257.6"/>
<line class="st1" x1="87" y1="248.9" x2="87" y2="419"/>
<line class="st1" x1="87" y1="275" x2="256.9" y2="366"/>
<line class="st1" x1="92.5" y1="517.7" x2="265.5" y2="549.3"/>
<line class="st1" x1="265.5" y1="534.3" x2="265.5" y2="559.2"/>
<line class="st1" x1="245.1" y1="359.7" x2="299.3" y2="359.7"/>
<line class="st1" x1="299.3" y1="359.7" x2="298" y2="500.3"/>
<rect x="298.7" y="432" class="st2" width="52" height="52"/>
<line class="st1" x1="395" y1="199.6" x2="415" y2="197"/>
<line class="st1" x1="415" y1="197.3" x2="415" y2="235.6"/>
<line class="st1" x1="395" y1="236.3" x2="431" y2="235.1"/>
<line class="st1" x1="415.5" y1="197.7" x2="431.5" y2="204.2"/>
<line class="st1" x1="431.5" y1="204.2" x2="431" y2="235.1"/>
<line class="st1" x1="404" y1="236.3" x2="404" y2="287.7"/>
<line class="st1" x1="395" y1="199.6" x2="395" y2="287.7"/>
<line class="st1" x1="436.7" y1="241.3" x2="436.7" y2="369.2"/>
<line class="st1" x1="341" y1="287.7" x2="424" y2="287.7"/>
<line class="st1" x1="424" y1="287.7" x2="424.3" y2="335.3"/>
<line class="st1" x1="430.3" y1="293.4" x2="430.3" y2="339"/>
<line class="st1" x1="424.3" y1="335.3" x2="436.3" y2="342.7"/>
<line class="st1" x1="341" y1="330" x2="388.3" y2="330"/>
<line class="st1" x1="341.5" y1="337" x2="375.8" y2="337"/>
<line class="st1" x1="388.3" y1="330" x2="388.3" y2="347"/>
<line class="st1" x1="341.5" y1="351.3" x2="384.7" y2="351.3"/>
<line class="st1" x1="341.5" y1="358.7" x2="384.7" y2="358.7"/>
<line class="st1" x1="341" y1="91.7" x2="342.1" y2="432"/>
<line class="st1" x1="280.4" y1="49.7" x2="309" y2="49.7"/>
<line class="st1" x1="309.7" y1="50.3" x2="341" y2="91.7"/>
<line class="st1" x1="309" y1="49.7" x2="309" y2="327.1"/>
<line class="st1" x1="279.7" y1="72.8" x2="308.3" y2="72"/>
<line class="st1" x1="279.7" y1="0" x2="279.7" y2="313.7"/>
<line class="st1" x1="168.7" y1="0" x2="168.7" y2="248"/>
<line class="st1" x1="87" y1="248.9" x2="199" y2="247.7"/>
<line class="st1" x1="199" y1="247.7" x2="199.6" y2="335.3"/>
<line class="st1" x1="384.7" y1="347" x2="384.7" y2="538.9"/>
<line class="st1" x1="403.3" y1="355.5" x2="418" y2="363.8"/>
<line class="st1" x1="513.2" y1="180.4" x2="560.5" y2="179.6"/>
<line class="st1" x1="545.3" y1="285" x2="547.3" y2="369.2"/>
<line class="st1" x1="529.3" y1="265" x2="530.9" y2="369.2"/>
<line class="st1" x1="341.9" y1="311" x2="424.1" y2="311.5"/>
<line class="st1" x1="287.5" y1="497.8" x2="298" y2="498.4"/>
<line class="st1" x1="298" y1="500.3" x2="297.7" y2="560"/>
<line class="st1" x1="298.7" y1="493" x2="340.3" y2="493"/>
<line class="st1" x1="340.3" y1="493" x2="340.3" y2="559.2"/>
<line class="st1" x1="361" y1="500.3" x2="361.7" y2="560"/>
<line class="st1" x1="340.3" y1="493" x2="361" y2="500.3"/>
<line class="st1" x1="724.3" y1="233.3" x2="664" y2="237.6"/>
<line class="st1" x1="664" y1="237.6" x2="664" y2="271.7"/>
<line class="st1" x1="664" y1="271.7" x2="652.7" y2="271.7"/>
<line class="st1" x1="652.7" y1="271.7" x2="656.8" y2="295.9"/>
<line class="st1" x1="689.3" y1="0" x2="689.3" y2="235.5"/>
<line class="st1" x1="719.1" y1="0" x2="726.1" y2="295.9"/>
<line class="st1" x1="754.6" y1="0" x2="754.6" y2="393"/>
<line class="st1" x1="800.7" y1="380.7" x2="685" y2="411.7"/>
<line class="st1" x1="685" y1="411.7" x2="609.7" y2="481.4"/>
<line class="st1" x1="609.7" y1="481.4" x2="609.7" y2="559.2"/>
<line class="st1" x1="690" y1="410.3" x2="690" y2="533.7"/>
<line class="st1" x1="609.7" y1="555" x2="778" y2="511"/>
<line class="st1" x1="787" y1="281.7" x2="789.9" y2="383.6"/>
<line class="st1" x1="787" y1="281.7" x2="814.3" y2="248"/>
<line class="st1" x1="806.8" y1="0" x2="814.3" y2="248"/>
<line class="st1" x1="810.3" y1="115.7" x2="860.3" y2="94.3"/>
<line class="st1" x1="840.3" y1="172" x2="840.3" y2="328.9"/>
<line class="st1" x1="840.3" y1="172" x2="960" y2="35.6"/>
<line class="st1" x1="860.3" y1="62.3" x2="860.3" y2="149.2"/>
<line class="st1" x1="823" y1="389.5" x2="807.5" y2="485"/>
<line class="st1" x1="778" y1="511" x2="778" y2="559.2"/>
<line class="st1" x1="778" y1="511" x2="960" y2="505.2"/>
<line class="st2" x1="475.1" y1="119.4" x2="496" y2="119.5"/>
<line class="st2" x1="470.8" y1="133" x2="474.1" y2="119.4"/>
<line class="st2" x1="470.8" y1="132.8" x2="500.8" y2="133.2"/>
<line class="st2" x1="480.5" y1="21.2" x2="491.5" y2="21.2"/>
<line class="st2" x1="470.8" y1="147" x2="500.8" y2="147.3"/>
<line class="st2" x1="529.3" y1="285" x2="545.3" y2="285"/>
<line class="st2" x1="530.9" y1="357.7" x2="547.1" y2="357.7"/>
<line class="st2" x1="551.9" y1="293.6" x2="553.3" y2="369.2"/>
<line class="st2" x1="529.3" y1="276.1" x2="546.3" y2="276.1"/>
<line class="st2" x1="545.3" y1="285" x2="551.9" y2="293.6"/>
<line class="st2" x1="554.7" y1="280" x2="557.2" y2="368.3"/>
<line class="st2" x1="546.3" y1="276.1" x2="554.7" y2="280"/>
<line class="st2" x1="516.3" y1="264.1" x2="529.3" y2="265"/>
<line class="st2" x1="454" y1="264.9" x2="441" y2="265.5"/>
<line class="st2" x1="456.5" y1="219.2" x2="514" y2="219.2"/>
<line class="st2" x1="456.5" y1="219.2" x2="456.5" y2="229.2"/>
<line class="st2" x1="514" y1="219.2" x2="514" y2="229.2"/>
<line class="st2" x1="460.4" y1="222.2" x2="510.8" y2="222.2"/>
<line class="st2" x1="470.8" y1="210.8" x2="470.8" y2="219.2"/>
<line class="st2" x1="499.8" y1="210.8" x2="499.8" y2="219.2"/>
<line class="st2" x1="459.8" y1="222.2" x2="459.8" y2="229.2"/>
<line class="st2" x1="510.8" y1="222.2" x2="510.8" y2="229.2"/>
<line class="st2" x1="431" y1="235.1" x2="436.7" y2="241.3"/>
<line class="st2" x1="424" y1="287.7" x2="430.3" y2="293.4"/>
<line class="st2" x1="375.8" y1="347" x2="388.3" y2="347"/>
<line class="st2" x1="375.8" y1="337" x2="375.8" y2="347"/>
<line class="st2" x1="397.5" y1="355.5" x2="403.3" y2="355.5"/>
<line class="st2" x1="418" y1="369.2" x2="418" y2="363.8"/>
<line class="st2" x1="388.3" y1="330" x2="397.2" y2="337"/>
<line class="st2" x1="397.2" y1="337" x2="397.5" y2="355.5"/>
<line class="st2" x1="483" y1="7.6" x2="483" y2="21.2"/>
<line class="st2" x1="870.2" y1="450" x2="809" y2="475.7"/>
<line class="st2" x1="798" y1="488.3" x2="868.3" y2="463.3"/>
<line class="st2" x1="882.1" y1="365.2" x2="870.2" y2="450"/>
<line class="st2" x1="870.2" y1="450" x2="927" y2="439.3"/>
<line class="st2" x1="868.3" y1="463.3" x2="927.3" y2="453.5"/>
<line class="st2" x1="821.1" y1="401.1" x2="882.1" y2="365.2"/>
<line class="st2" x1="819.8" y1="409.6" x2="880.7" y2="375.1"/>
<line class="st2" x1="837.7" y1="391.7" x2="826.6" y2="468.3"/>
<line class="st2" x1="847.4" y1="386.9" x2="834.7" y2="464.9"/>
<line class="st2" x1="857.3" y1="381" x2="846.1" y2="460.1"/>
<line class="st2" x1="866.3" y1="375.9" x2="855.5" y2="456.2"/>
<line class="st2" x1="889.9" y1="363" x2="877.9" y2="448.6"/>
<line class="st2" x1="882.1" y1="365.2" x2="934" y2="350.3"/>
<line class="st2" x1="880.7" y1="375.1" x2="932.3" y2="362.3"/>
<line class="st2" x1="927" y1="439.3" x2="934" y2="350.3"/>
<line class="st2" x1="927" y1="439.3" x2="960" y2="440.1"/>
<line class="st2" x1="946" y1="362.3" x2="940.7" y2="439.6"/>
<line class="st2" x1="927.3" y1="453.5" x2="960" y2="453"/>
<line class="st2" x1="932.3" y1="362.3" x2="960" y2="362.3"/>
<line class="st2" x1="934" y1="350.3" x2="959.9" y2="350.3"/>
<line class="st2" x1="293" y1="339" x2="292.7" y2="359.7"/>
<line class="st2" x1="209.3" y1="340.5" x2="293" y2="339"/>
<line class="st2" x1="319.5" y1="399.7" x2="320" y2="386"/>
<line class="st2" x1="251.1" y1="0" x2="247" y2="339.7"/>
<line class="st2" x1="254.2" y1="320.7" x2="254" y2="339"/>
<path class="st2" d="M254.2,315.7"/>
<path class="st2" d="M254.3,310.7"/>
<line class="st2" x1="256.9" y1="0" x2="254.3" y2="310.7"/>
<path class="st2" d="M299,379c2.3-0.4,7.3-0.9,13,1.5c3.9,1.6,6.5,4,8,5.5"/>
<path class="st2" d="M299,394.5c2.8,0,6.8,0.3,11,1.5c2.9,0.8,5,1.8,5.5,2c1.5,0.7,2.8,1.4,3.8,2"/>
<path class="st2" d="M299,410c3.2-0.5,7.5-1.6,12.2-4c3.5-1.8,6.2-3.8,8.2-5.5"/>
<path class="st2" d="M247,310.7c8.5,0.1,15.7,0.7,21,1.3c6.4,0.8,12.8,1.6,21,4c6.9,2.1,11.4,3.5,16.1,7.4c4.4,3.7,7,7.9,8.4,10.8"
	/>
<line class="st2" x1="313.5" y1="334.8" x2="313.5" y2="381.2"/>
<path class="st2" d="M247,315.7c8.5,0.1,15.7,0.7,21,1.3c6.4,0.8,12.8,1.6,21,4c6.9,2.1,11.4,3.5,16.1,7.4c4.4,3.7,7,7.9,8.4,10.8"
	/>
<line class="st2" x1="259.8" y1="321.7" x2="259.8" y2="339.6"/>
<line class="st2" x1="266.7" y1="321.7" x2="266.7" y2="339.2"/>
<line class="st2" x1="279" y1="323.4" x2="279" y2="338.5"/>
<line class="st2" x1="287.5" y1="325.4" x2="287.5" y2="339.2"/>
<path class="st2" d="M293.5,350c2.1-0.2,5.1-0.1,8.5,0.8c2.4,0.6,4.3,1.5,5.8,2.2"/>
<line class="st2" x1="302" y1="331.5" x2="302" y2="378.4"/>
<line class="st2" x1="307.8" y1="378.4" x2="307.5" y2="335.3"/>
<line class="st2" x1="295" y1="328.5" x2="295" y2="349.3"/>
<path class="st2" d="M247,320.5c8.5,0.1,15.7,0.7,21,1.3c6.4,0.8,12.8,1.6,21,4c6.9,2.1,11.4,3.5,16.1,7.4c4.4,3.7,7,7.9,8.4,10.8"
	/>
<line class="st2" x1="0" y1="31.4" x2="168.7" y2="21.2"/>
<line class="st2" x1="-0.7" y1="21.7" x2="168" y2="11.6"/>
<line class="st2" x1="1.7" y1="221.3" x2="168.7" y2="215"/>
<line class="st2" x1="0.9" y1="211.6" x2="168.7" y2="204"/>
<line class="st2" x1="-1" y1="195.3" x2="167.7" y2="184.8"/>
<line class="st2" x1="-1.6" y1="185.6" x2="168.7" y2="175"/>
<line class="st2" x1="0.8" y1="167.5" x2="167.3" y2="157.5"/>
<line class="st2" x1="0.1" y1="157.8" x2="168.8" y2="147.6"/>
<line class="st2" x1="0.8" y1="141.4" x2="167.2" y2="131.4"/>
<line class="st2" x1="0.1" y1="131.7" x2="168.8" y2="121.6"/>
<line class="st2" x1="-0.3" y1="113.2" x2="168.3" y2="103"/>
<line class="st2" x1="-1" y1="103.5" x2="167.7" y2="93.3"/>
<line class="st2" x1="-0.7" y1="85.6" x2="168" y2="75.5"/>
<line class="st2" x1="-1.3" y1="75.9" x2="167.4" y2="65.8"/>
<line class="st2" x1="1.7" y1="58.5" x2="168.7" y2="48.5"/>
<line class="st2" x1="1" y1="48.8" x2="168.7" y2="38.7"/>
<ellipse transform="matrix(0.5814 -0.8136 0.8136 0.5814 72.6848 263.9511)" class="st2" cx="292.9" cy="61.3" rx="8.1" ry="7.7"/>
<line class="st2" x1="87" y1="369.4" x2="256.9" y2="435.3"/>
<line class="st2" x1="94.3" y1="437" x2="256.9" y2="486"/>
<line class="st2" x1="108.2" y1="286.4" x2="102.4" y2="519.6"/>
<line class="st2" x1="136.3" y1="601.7" x2="136.3" y2="603"/>
<line class="st2" x1="121.7" y1="295.2" x2="116" y2="521.2"/>
<line class="st2" x1="136.5" y1="301.5" x2="128.8" y2="524.4"/>
<line class="st2" x1="152.4" y1="310.7" x2="147.7" y2="527.8"/>
<line class="st2" x1="168.7" y1="318.7" x2="164.4" y2="530.2"/>
<line class="st2" x1="179.7" y1="324.6" x2="179.7" y2="533.7"/>
<line class="st2" x1="191.7" y1="330.9" x2="191.1" y2="535.8"/>
<line class="st2" x1="205" y1="338.2" x2="205.7" y2="538.4"/>
<line class="st2" x1="217.7" y1="345" x2="217.7" y2="540.6"/>
<line class="st2" x1="229" y1="351.1" x2="228.4" y2="542.7"/>
<line class="st2" x1="240.4" y1="356.9" x2="237.7" y2="544.3"/>
<line class="st2" x1="249.1" y1="361.8" x2="249.1" y2="546.3"/>
<line class="st2" x1="0" y1="412.7" x2="87" y2="451.2"/>
<line class="st2" x1="0" y1="427.4" x2="86.9" y2="461.5"/>
<line class="st2" x1="0" y1="448.2" x2="86.4" y2="479.9"/>
<line class="st2" x1="0" y1="406.2" x2="87.4" y2="444.8"/>
<line class="st2" x1="0" y1="467.3" x2="85.2" y2="496.1"/>
<line class="st2" x1="0" y1="454.7" x2="86" y2="485.6"/>
<line class="st2" x1="0" y1="435.3" x2="86" y2="467.9"/>
<line class="st2" x1="-0.3" y1="489.5" x2="85.4" y2="513.1"/>
<line class="st2" x1="0" y1="474.8" x2="85.7" y2="501.6"/>
<line class="st2" x1="0" y1="510.5" x2="84.8" y2="529.2"/>
<line class="st2" x1="0" y1="517.1" x2="84.4" y2="535.1"/>
<line class="st2" x1="0" y1="530.2" x2="83.7" y2="547.5"/>
<line class="st2" x1="0" y1="537.4" x2="83.7" y2="553.3"/>
<line class="st2" x1="0" y1="550.5" x2="55.7" y2="560"/>
<line class="st2" x1="19.7" y1="392.8" x2="16.9" y2="559.2"/>
<line class="st2" x1="58.4" y1="413.9" x2="55.7" y2="560"/>
<path class="st2" d="M0,281c35.9,6.1,63,34.8,63,69.3c0,17.2-6.8,33-18.1,45.3"/>
<path class="st2" d="M0,394.9"/>
<path class="st2" d="M0,305.4c19.2,5.8,33.3,23.6,33.3,44.7c0,12.7-5.1,24.2-13.3,32.7"/>
<line class="st1" x1="0" y1="382.8" x2="87.8" y2="429.6"/>
<line class="st1" x1="87.8" y1="429.6" x2="84.2" y2="559.2"/>
<line class="st2" x1="0" y1="497.1" x2="84.3" y2="518.1"/>
<line class="st2" x1="789.7" y1="498.3" x2="789.5" y2="509.8"/>
<line class="st2" x1="800.7" y1="351" x2="800.7" y2="386.9"/>
<path class="st2" d="M638,329.3c1.6-0.9,3.6-1.9,6-2.7c1.8-0.6,3.5-1,5-1.3"/>
<line class="st2" x1="638" y1="329.3" x2="638" y2="454.1"/>
<line class="st2" x1="628.8" y1="323.4" x2="649" y2="322.4"/>
<path class="st2" d="M800.7,351c0.6,0,0.9-0.8,1.1-1.4c1-2.9,4.3-4.2,7.2-5.3c12.8-4.7,24.9-11,36.1-18.8c2.2-1.5,4.4-3.2,6-5.3
	c2.6-3.4,3.5-7.7,5.8-11.4c3.7-6,10.4-9.5,16.8-12.5c26.4-12.2,54.7-21.7,83.8-21.3c0.8,0,1.6,0,2.3,0.5c0.6,0.5,0.9,1.5,0.3,2"/>
<path class="st2" d="M801.1,384.7c0.6-2.5,2.6-4.4,4.7-5.9c14.1-10.7,33.5-13.8,45.8-26.5c4.6-4.7,8.1-10.6,13.4-14.5
	c2.7-2,5.7-3.5,8.8-4.9c7-3.3,14.1-6.6,21.6-8.7c7.6-2.1,15.4-2.9,23.2-3.7c13.9-1.4,27.8-2.8,41.7-4.2c0,0.6,0,1.2,0,1.8"/>
<path class="st2" d="M800.7,386.9c9.4,4.6,20.6,3.1,31,1.4c4.2-0.7,8.7-1.5,11.5-4.5c1.4-1.5,2.2-3.4,3.3-5.1c2.1-3.5,5.1-6.3,8.2-9
	c9.1-8,19-15.2,30.3-20c15.7-6.7,33.2-8.3,50.4-9.5c7.9-0.6,15.8-1.1,23.7-1.5c0.6,0.3,1,1,0.9,1.7"/>
<path class="st2" d="M789.7,498.3c15.2-7.6,31.2-13.5,47.6-17.7c4.6-1.2,9.2-2.2,13.8-3.3c5.8-1.3,11.6-2.6,17.5-3.9
	c28.6-6.4,57.4-12.9,86.7-14.5c2.1-0.1,4.8,0.3,5.3,2.3"/>
<line class="st2" x1="789.7" y1="498.3" x2="798" y2="488.3"/>
<line class="st2" x1="860.3" y1="62.3" x2="910.5" y2="0"/>
<path class="st2" d="M800.7,357c0.6,0,0.9-0.8,1.1-1.4c1-2.9,4.3-4.2,7.2-5.3c12.8-4.7,24.9-11,36.1-18.8c2.2-1.5,4.4-3.2,6-5.3
	c2.6-3.4,3.5-7.7,5.8-11.4c3.7-6,10.4-9.5,16.8-12.5c26.4-12.2,54.7-21.7,83.8-21.3c0.8,0,1.6,0,2.3,0.5c0.6,0.5,0.9,1.5,0.3,2"/>
<path class="st2" d="M800.1,380.7c0.6-2.5,2.6-4.4,4.7-5.9c14.1-10.7,33.5-13.8,45.8-26.5c4.6-4.7,8.1-10.6,13.4-14.5
	c2.7-2,5.7-3.5,8.8-4.9c7-3.3,14.1-6.6,21.6-8.7c7.6-2.1,15.4-2.9,23.2-3.7c13.9-1.4,27.8-2.8,41.7-4.2c0,0.6,0,1.2,0,1.8"/>
<path class="st2" d="M789.7,502.3c15.2-7.6,31.2-13.5,47.6-17.7c4.6-1.2,9.2-2.2,13.8-3.3c5.8-1.3,11.6-2.6,17.5-3.9
	c28.6-6.4,57.4-12.9,86.7-14.5c2.1-0.1,4.8,0.3,5.3,2.3"/>
<path class="st2" d="M809.8,509.8c26.3-10.6,54.5-12,82.6-16.5c22.3-3.6,45.3-7.3,67-5.6"/>
<path class="st2" d="M845.6,166c-6.4-5.7-10.5-14-10.5-23.2c0-15,10.6-27.4,24.7-30.3"/>
<line class="st2" x1="828" y1="224.8" x2="828" y2="254.7"/>
<line class="st2" x1="835.2" y1="252.8" x2="835.2" y2="278.8"/>
<line class="st2" x1="828" y1="224.8" x2="840.3" y2="215.5"/>
<path class="st2" d="M834.5,259.2c-0.7-0.1-2.4-0.3-4-1.6c-1.4-1.1-2.1-2.3-2.4-3"/>
<path class="st2" d="M840.6,284.5c-0.6-0.1-1.9-0.6-3.3-2.1c-1.2-1.3-1.8-2.9-2.1-3.7"/>
<line class="st2" x1="835.2" y1="252.8" x2="840.3" y2="249.2"/>
<line class="st2" x1="720.8" y1="72.4" x2="754.6" y2="61.3"/>
<line class="st2" x1="720.6" y1="61.3" x2="754.6" y2="49.7"/>
<line class="st2" x1="720.1" y1="40.3" x2="754.6" y2="26.3"/>
<line class="st2" x1="719.9" y1="29.2" x2="754.6" y2="14.6"/>
<line class="st2" x1="719.3" y1="7.7" x2="737.6" y2="0"/>
<line class="st2" x1="721.3" y1="91" x2="754.6" y2="80.5"/>
<line class="st2" x1="721.6" y1="105.8" x2="754.6" y2="94.3"/>
<line class="st2" x1="722.6" y1="120.8" x2="754.6" y2="112.5"/>
<line class="st2" x1="722.6" y1="136.4" x2="754.6" y2="126.4"/>
<line class="st2" x1="722.6" y1="157.2" x2="754.6" y2="149.2"/>
<line class="st2" x1="723.2" y1="172" x2="754.6" y2="162.5"/>
<line class="st2" x1="723.6" y1="192" x2="754.6" y2="182.3"/>
<line class="st2" x1="724" y1="207.8" x2="754.6" y2="197.3"/>
<line class="st2" x1="724.5" y1="225.7" x2="754.6" y2="216.5"/>
<line class="st2" x1="724.8" y1="241.3" x2="754.6" y2="230.6"/>
<line class="st2" x1="725.3" y1="259.2" x2="754.6" y2="252"/>
<line class="st2" x1="725.5" y1="271.7" x2="754.6" y2="264.5"/>
<line class="st2" x1="795.7" y1="0" x2="800.7" y2="264.8"/>
<line class="st2" x1="837.9" y1="0" x2="837.9" y2="103.8"/>
<line class="st2" x1="850.2" y1="0" x2="850.2" y2="98.6"/>
<line class="st2" x1="910.5" y1="0" x2="914.5" y2="87.5"/>
<line class="st2" x1="923" y1="0" x2="925.4" y2="75"/>
<line class="st2" x1="935" y1="0" x2="937.4" y2="61.3"/>
<line class="st2" x1="900.8" y1="12" x2="903.5" y2="100"/>
<line class="st2" x1="889.9" y1="25.6" x2="892.6" y2="112.5"/>
<line class="st2" x1="880.7" y1="37.5" x2="880.7" y2="126"/>
<line class="st2" x1="869.2" y1="51.3" x2="871.5" y2="136.5"/>
<line class="st2" x1="948.9" y1="0" x2="950" y2="47"/>
<rect x="402.5" y="369.2" class="st2" width="42" height="116.8"/>
<path class="st2" d="M817.3,509.7c22.7-5.2,121.6-22.1,143-19.1"/>
</svg>
