<?xml version="1.0" encoding="utf-8"?>
<!-- Generator: Adobe Illustrator 19.2.1, SVG Export Plug-In . SVG Version: 6.00 Build 0)  -->
<svg version="1.1" id="Layer_1" xmlns="http://www.w3.org/2000/svg" xmlns:xlink="http://www.w3.org/1999/xlink" x="0px" y="0px"
	 viewBox="0 0 960 560" style="enable-background:new 0 0 960 560;" xml:space="preserve">
<style type="text/css">
	.st0{fill:none;stroke:#000000;stroke-width:0.5;}
</style>
<g>
	<path class="st0" d="M278.8,236.9l19.4,53.7l17.1-48.4l17.6,48.6l18.9-53.9h5.4l-25,71.2h-3.3l-16-44l-15.4,44h-3.7l-25.8-71.2
		H278.8z"/>
	<path class="st0" d="M385.2,308.7c-3.4,0-6.6-0.7-9.5-2.1c-3-1.4-5.6-3.3-7.8-5.6c-2.2-2.4-4-5.2-5.3-8.4
		c-1.3-3.2-1.9-6.6-1.9-10.3c0-4.4,0.6-8.4,1.8-12.1c1.2-3.7,2.8-6.9,5-9.6c2.1-2.7,4.7-4.8,7.8-6.3s6.4-2.3,10.1-2.3
		c3.3,0,6.3,0.6,9.1,1.9c2.7,1.2,5.1,2.9,7,5c2,2.1,3.5,4.6,4.6,7.3c1.1,2.8,1.6,5.7,1.6,8.7h-37.4c0,3.6,0.4,7,1.3,10.2
		c0.9,3.1,2.1,5.8,3.6,8.1c1.6,2.3,3.4,4,5.6,5.3c2.2,1.3,4.6,1.9,7.1,1.9c2.2,0,4.3-0.4,6.3-1.1c2-0.8,3.8-1.8,5.4-3
		c1.6-1.2,3-2.7,4.1-4.3c1.1-1.6,1.9-3.2,2.4-4.9l2.8,1.4c-0.7,2.8-1.9,5.4-3.5,7.9c-1.6,2.4-3.5,4.6-5.6,6.4
		c-2.1,1.8-4.5,3.3-7,4.3C390.4,308.1,387.8,308.7,385.2,308.7z M395.2,270.6c0-2.1-0.3-4-1-5.8c-0.7-1.8-1.6-3.3-2.8-4.6
		c-1.2-1.3-2.5-2.3-4.1-3.1c-1.6-0.7-3.3-1.1-5.1-1.1c-1.5,0-2.9,0.4-4.3,1.1c-1.4,0.7-2.6,1.8-3.7,3c-1.1,1.3-2,2.8-2.7,4.6
		c-0.7,1.8-1.1,3.7-1.3,5.8L395.2,270.6z"/>
	<path class="st0" d="M428.7,307.5h-9.9v-79.2l7.1-3.1h2.8V307.5z"/>
	<path class="st0" d="M462.2,308.7c-3.3,0-6.3-0.7-9.2-2.1s-5.4-3.3-7.5-5.8c-2.1-2.4-3.8-5.3-5-8.6c-1.2-3.3-1.8-6.8-1.8-10.5
		c0-4.1,0.7-8,2-11.6s3.2-6.8,5.6-9.5s5.1-4.8,8.3-6.4s6.5-2.3,10.1-2.3c2.8,0,5.4,0.3,7.7,1c2.4,0.7,4.4,1.6,6.1,2.7
		c1.7,1.2,3,2.5,4,4.1c1,1.6,1.4,3.3,1.4,5.1c0,0.8-0.2,1.6-0.6,2.3c-0.4,0.7-0.9,1.4-1.5,1.9c-0.6,0.5-1.3,1-2.1,1.3
		c-0.8,0.3-1.6,0.5-2.4,0.5c-0.9,0-1.7-0.2-2.4-0.5s-1.3-0.8-1.8-1.4c-0.5-0.6-0.9-1.2-1.2-1.9c-0.3-0.7-0.4-1.4-0.4-2.2
		c0-1.2-0.1-2.4-0.4-3.5c-0.2-1.1-0.7-2-1.3-2.8c-0.6-0.8-1.5-1.4-2.6-1.9s-2.5-0.7-4.2-0.7c-2.3,0-4.3,0.5-6.1,1.5
		c-1.8,1-3.3,2.3-4.6,4c-1.2,1.7-2.2,3.7-2.8,6c-0.7,2.3-1,4.7-1,7.3c0,3.5,0.4,6.8,1.3,9.9c0.8,3.1,2,5.8,3.5,8.2
		c1.5,2.3,3.4,4.2,5.5,5.5c2.1,1.4,4.5,2.1,7.2,2.1c2.3,0,4.4-0.4,6.1-1.2c1.7-0.8,3.2-1.9,4.5-3.2c1.3-1.4,2.3-2.9,3.2-4.7
		c0.9-1.8,1.7-3.7,2.4-5.7l3,1.3c-0.8,3.4-2,6.5-3.4,9.2c-1.4,2.7-3.1,5-5.1,6.8c-1.9,1.9-4.1,3.3-6.6,4.3
		C467.7,308.2,465,308.7,462.2,308.7z"/>
	<path class="st0" d="M518.9,308.7c-3.8,0-7.4-0.7-10.6-2.2c-3.3-1.5-6.1-3.4-8.4-5.9c-2.3-2.5-4.2-5.4-5.5-8.8
		c-1.3-3.4-2-6.9-2-10.8c0-4,0.7-7.8,2-11.3c1.3-3.5,3.2-6.6,5.5-9.2c2.3-2.6,5.1-4.7,8.4-6.2c3.2-1.5,6.8-2.3,10.6-2.3
		c3.8,0,7.3,0.7,10.6,2.1c3.2,1.4,6,3.3,8.4,5.7c2.4,2.4,4.2,5.3,5.5,8.5c1.3,3.3,2,6.7,2,10.5c0,4.1-0.7,8-2,11.6
		c-1.3,3.6-3.2,6.8-5.5,9.5c-2.4,2.7-5.2,4.9-8.4,6.4C526.2,307.9,522.7,308.7,518.9,308.7z M520.8,304.6c2,0,3.8-0.5,5.4-1.6
		c1.6-1.1,3-2.6,4.2-4.4s2.1-4,2.8-6.5c0.7-2.5,1-5.1,1-7.8c0-4-0.3-7.6-0.9-11.1c-0.6-3.4-1.6-6.4-3-9c-1.4-2.6-3.2-4.6-5.5-6.1
		c-2.2-1.5-5-2.2-8.3-2.2c-1.7,0-3.3,0.5-4.9,1.6c-1.6,1-2.9,2.5-4.1,4.3c-1.2,1.8-2.2,4-2.9,6.4c-0.7,2.4-1.1,5-1.1,7.8
		c0,4,0.4,7.7,1.2,11.1s1.9,6.5,3.4,9.1s3.3,4.6,5.4,6.1S518.1,304.6,520.8,304.6z"/>
	<path class="st0" d="M554.9,253.1h9.9v10.2c1.3-1.5,2.7-3,4.3-4.3c1.6-1.4,3.3-2.5,4.9-3.6c1.7-1,3.4-1.9,5.1-2.5
		c1.7-0.6,3.3-0.9,4.9-0.9c1.5,0,3,0.3,4.5,0.9c1.5,0.6,2.9,1.4,4.2,2.4s2.4,2.2,3.3,3.6c0.9,1.4,1.5,2.9,1.8,4.6
		c0.8-1.6,2-3.1,3.4-4.5c1.4-1.4,3.1-2.6,4.8-3.6c1.8-1,3.6-1.8,5.6-2.5c2-0.6,3.9-0.9,5.8-0.9c1.9,0,3.7,0.5,5.3,1.4
		s3.1,2.1,4.4,3.7c1.2,1.5,2.2,3.3,2.9,5.4c0.7,2.1,1.1,4.3,1.1,6.6v38.5h-10v-36.9c0-1.5-0.2-3-0.7-4.3c-0.5-1.4-1.1-2.6-1.9-3.6
		c-0.8-1-1.8-1.8-2.8-2.5c-1.1-0.6-2.2-0.9-3.5-0.9c-1.4,0-2.8,0.2-4.2,0.6s-2.8,1-4,1.7c-1.3,0.7-2.4,1.5-3.5,2.5
		c-1.1,0.9-1.9,1.9-2.5,3v40.4h-9.9v-36.9c0-1.5-0.2-3-0.7-4.3c-0.5-1.4-1.1-2.6-2-3.6c-0.8-1-1.8-1.8-2.9-2.5
		c-1.1-0.6-2.2-0.9-3.5-0.9c-1.3,0-2.6,0.2-3.9,0.6c-1.4,0.4-2.7,1-4,1.7c-1.3,0.7-2.5,1.5-3.6,2.5c-1.1,0.9-2,1.9-2.8,3v40.4h-9.9
		V253.1z"/>
	<path class="st0" d="M665,308.7c-3.4,0-6.6-0.7-9.5-2.1s-5.6-3.3-7.8-5.6c-2.2-2.4-4-5.2-5.3-8.4c-1.3-3.2-1.9-6.6-1.9-10.3
		c0-4.4,0.6-8.4,1.8-12.1c1.2-3.7,2.8-6.9,5-9.6c2.1-2.7,4.7-4.8,7.8-6.3s6.4-2.3,10.1-2.3c3.3,0,6.3,0.6,9.1,1.9
		c2.7,1.2,5.1,2.9,7,5c2,2.1,3.5,4.6,4.6,7.3c1.1,2.8,1.6,5.7,1.6,8.7H650c0,3.6,0.4,7,1.3,10.2c0.9,3.1,2.1,5.8,3.6,8.1
		c1.6,2.3,3.4,4,5.6,5.3c2.2,1.3,4.6,1.9,7.1,1.9c2.2,0,4.3-0.4,6.3-1.1c2-0.8,3.8-1.8,5.4-3c1.6-1.2,3-2.7,4.1-4.3
		c1.1-1.6,1.9-3.2,2.4-4.9l2.8,1.4c-0.7,2.8-1.9,5.4-3.5,7.9c-1.6,2.4-3.5,4.6-5.6,6.4c-2.1,1.8-4.5,3.3-7,4.3
		C670.1,308.1,667.5,308.7,665,308.7z M674.9,270.6c0-2.1-0.3-4-1-5.8c-0.7-1.8-1.6-3.3-2.8-4.6c-1.2-1.3-2.5-2.3-4.1-3.1
		c-1.6-0.7-3.3-1.1-5.1-1.1c-1.5,0-2.9,0.4-4.3,1.1c-1.4,0.7-2.6,1.8-3.7,3c-1.1,1.3-2,2.8-2.7,4.6c-0.7,1.8-1.1,3.7-1.3,5.8
		L674.9,270.6z"/>
</g>
</svg>
